<svg width="36" height="34" viewBox="0 0 36 34" fill="#FFF" xmlns="http://www.w3.org/2000/svg">
<path fill-rule="evenodd" clip-rule="evenodd" d="M10.8105 7.32764H31.6494C34.043 7.32764 36 9.2876 36 11.6782V29.2065C36 31.6001 34.04 33.5571 31.6494 33.5571H10.8105C8.41699 33.5571 6.45996 31.6001 6.45996 29.2065V11.6782C6.45996 9.2876 8.41699 7.32764 10.8105 7.32764ZM2.95312 22.1108C2.95312 22.9253 2.29102 23.5874 1.47656 23.5874C0.662109 23.5874 0 22.9253 0 22.1108V6.27002C0 4.66748 0.65625 3.2085 1.71094 2.15381C2.76562 1.09912 4.22461 0.442871 5.82715 0.442871H24.9785C25.793 0.442871 26.4551 1.10498 26.4551 1.91943C26.4551 2.73389 25.793 3.396 24.9785 3.396H5.82715C5.03906 3.396 4.31836 3.71826 3.79688 4.23975C3.27539 4.76123 2.95312 5.479 2.95312 6.27002V22.1108ZM15.9082 22.1313C14.9766 22.1313 14.2207 21.3755 14.2207 20.4438C14.2207 19.5122 14.9766 18.7563 15.9082 18.7563H19.541V15.1206C19.541 14.189 20.2969 13.4331 21.2285 13.4331C22.1602 13.4331 22.916 14.189 22.916 15.1206V18.7563H26.5518C27.4834 18.7563 28.2393 19.5122 28.2393 20.4438C28.2393 21.3755 27.4834 22.1313 26.5518 22.1313H22.9189V25.7671C22.9189 26.6987 22.1631 27.4546 21.2314 27.4546C20.2998 27.4546 19.5439 26.6987 19.5439 25.7671V22.1313H15.9082Z" fill="#FFF"/>
</svg>
