<svg width="113" height="113" viewBox="0 0 113 113" fill="none" xmlns="http://www.w3.org/2000/svg">
<path d="M106.782 64.9823C109.658 60.0397 111.574 54.4735 112.272 48.5393C112.275 48.5205 112.276 48.5016 112.279 48.4828C112.469 46.8487 112.57 45.1872 112.57 43.5026C112.57 32.3786 108.306 22.2325 101.328 14.6103C101.217 14.4546 101.086 14.3126 100.937 14.1902C96.404 9.36914 90.771 5.59355 84.4407 3.27327C84.3269 3.22193 84.2088 3.17916 84.0882 3.14836C79.6008 1.54846 74.772 0.674072 69.7413 0.674072C64.1305 0.674072 58.7687 1.76064 53.8535 3.73099C53.72 3.7712 53.5917 3.82425 53.4677 3.88927C47.424 6.38067 42.0716 10.217 37.7835 15.0227C37.6432 15.1467 37.5183 15.2862 37.413 15.4402C30.8757 22.9623 26.9127 32.7781 26.9127 43.5026C26.9127 45.1102 27.0051 46.6973 27.1788 48.2595C27.1805 48.2792 27.1831 48.298 27.1857 48.3168C27.5039 51.1522 28.1003 53.9037 28.9464 56.5448L5.93952 79.5517C5.08396 80.4072 5.08396 81.7941 5.93952 82.6497C6.3673 83.0774 6.9277 83.2913 7.48809 83.2913C8.04848 83.2913 8.60887 83.0774 9.03665 82.6497L30.6635 61.0236C31.2658 62.3609 31.9349 63.663 32.6664 64.9233C32.7331 65.0739 32.8178 65.215 32.9162 65.3459C38.3456 74.4637 47.0621 81.404 57.4195 84.5216L41.9903 99.95C41.1356 100.806 41.1356 102.192 41.9903 103.048C42.4181 103.476 42.9793 103.69 43.5397 103.69C44.1001 103.69 44.6605 103.476 45.0883 103.048L62.4314 85.704C64.8081 86.1147 67.2499 86.3311 69.7413 86.3311C85.3424 86.3311 99.0203 77.9441 106.508 65.4435C106.618 65.3014 106.71 65.1474 106.782 64.9823ZM87.8313 65.0687L80.0388 53.0772L84.1823 40.3251L94.0307 38.1134L96.5931 37.5385L107.79 49.0364C107.11 53.7351 105.576 58.1618 103.352 62.1538L87.8313 65.0687ZM59.4446 53.0772L51.6556 65.0627L36.0869 62.0751C33.8565 58.0497 32.3284 53.5837 31.6662 48.8439L42.8775 37.5351L55.3011 40.3251L58.062 48.8233L59.4446 53.0772ZM37.8614 22.0323L39.8369 34.3806L31.3001 42.9918C31.4019 35.2413 33.8051 28.0358 37.8614 22.0323ZM63.4418 51.2044L59.5729 39.2975L69.7011 31.9397L79.8292 39.2984L75.9604 51.2044L63.4418 51.2044ZM108.185 43.1638L99.6038 34.3515L101.121 21.3094C105.51 27.4976 108.114 35.0334 108.185 43.1638ZM97.251 16.6714L95.3123 33.3368L90.5999 34.3943L82.9708 36.1071L71.9717 28.1162V16.259L83.8589 7.7393C88.9418 9.75329 93.4942 12.8213 97.251 16.6714ZM78.634 6.09491L69.6489 12.5347L59.632 6.40633C62.8549 5.52681 66.2437 5.05455 69.7413 5.05455C72.8016 5.05455 75.779 5.41559 78.634 6.09491ZM54.3164 8.28857L67.5108 16.3616V28.1162L59.7526 33.7526L56.5126 36.1071L44.1035 33.3214L41.554 17.3849C45.1174 13.5417 49.4542 10.4266 54.3164 8.28857ZM39.4741 67.1854L51.292 69.4543L57.3108 79.8871C50.2003 77.4513 44.0231 72.9861 39.4741 67.1854ZM63.2399 81.398L55.2566 67.5601L63.0388 55.5848L76.4437 55.5848L84.2259 67.5601L76.2444 81.3971C74.1294 81.759 71.9572 81.9498 69.7413 81.9498C67.5254 81.9507 65.354 81.7599 63.2399 81.398ZM82.1726 79.8871L88.188 69.4586L99.9605 67.247C95.4167 73.0178 89.2583 77.4598 82.1726 79.8871Z" fill="#2ebaab"/>
<path d="M30.5942 79.552L1.07136 109.076C0.215797 109.931 0.215797 111.318 1.07136 112.174C1.49914 112.601 2.05953 112.815 2.61992 112.815C3.18032 112.815 3.74071 112.601 4.16849 112.173L33.6922 82.65C34.5469 81.7945 34.5469 80.4076 33.6922 79.552C32.8366 78.6973 31.4498 78.6973 30.5942 79.552Z" fill="#2ebaab"/>
<path d="M36.8201 106.026C36.2443 106.026 35.6797 106.261 35.2724 106.668C34.8652 107.075 34.6299 107.64 34.6299 108.218C34.6299 108.794 34.8643 109.357 35.2724 109.765C35.6797 110.175 36.2443 110.409 36.8201 110.409C37.3968 110.409 37.9614 110.175 38.3687 109.765C38.7759 109.358 39.0104 108.794 39.0104 108.218C39.0104 107.64 38.7768 107.075 38.3687 106.668C37.9614 106.261 37.3968 106.026 36.8201 106.026Z" fill="#2ebaab"/>
</svg>
