<svg width="490" height="540" viewBox="0 0 490 540" fill="none" xmlns="http://www.w3.org/2000/svg">
<circle cx="315.5" cy="224.5" r="315.5" fill="url(#paint0_linear)"/>
<g opacity="0.3" clip-path="url(#clip0)">
<path fill-rule="evenodd" clip-rule="evenodd" d="M544.551 97.3747C546.202 96.5078 546.836 94.4721 545.97 92.8207C545.103 91.1692 543.067 90.5351 541.416 91.402L535.443 94.5373C533.791 95.4043 533.157 97.4399 534.024 99.0914L549.701 128.955C550.568 130.606 552.603 131.241 554.255 130.374L560.228 127.238C561.879 126.371 562.513 124.336 561.646 122.684C560.779 121.033 558.744 120.399 557.092 121.266L554.106 122.833L541.565 98.9424L544.551 97.3747ZM532.01 73.4838L502.146 89.1605C500.494 90.0274 499.86 92.0631 500.727 93.7145L535.216 159.415C536.083 161.066 538.118 161.7 539.77 160.833L569.634 145.157C571.285 144.29 571.919 142.254 571.052 140.603C570.185 138.951 568.15 138.317 566.498 139.184L539.621 153.293L508.268 93.5656L535.145 79.4565C536.796 78.5896 537.43 76.554 536.564 74.9025C535.697 73.251 533.661 72.6169 532.01 73.4838ZM407.774 199.649C406.126 200.515 405.488 202.552 406.355 204.203C407.222 205.855 409.261 206.487 410.909 205.622L416.882 202.487C418.531 201.621 419.168 199.584 418.301 197.933L402.624 168.069C401.757 166.417 399.718 165.785 398.07 166.65L392.097 169.786C390.449 170.651 389.812 172.688 390.679 174.34C391.546 175.991 393.584 176.624 395.233 175.758L398.219 174.191L410.76 198.081L407.774 199.649ZM420.315 223.54L450.179 207.863C451.827 206.998 452.465 204.961 451.598 203.309L417.109 137.609C416.242 135.958 414.203 135.325 412.555 136.191L382.691 151.867C381.043 152.733 380.406 154.77 381.273 156.421C382.139 158.073 384.178 158.705 385.827 157.84L412.704 143.731L444.057 203.458L417.18 217.567C415.532 218.433 414.894 220.47 415.761 222.121C416.628 223.773 418.667 224.405 420.315 223.54ZM401.778 73.1888L413.23 71.2306L422.213 52.9959L416.82 42.7228C406.49 49.5318 400.974 61.33 401.778 73.1888ZM422.793 39.5874L428.184 49.8575L448.327 52.7877L456.411 44.5098C447.107 37.1126 434.263 34.9525 422.793 39.5874ZM465.267 55.1897C464.124 53.0127 462.764 51.0255 461.246 49.2134L453.147 57.5066L456.772 78.0555L466.907 82.769C470.188 74.064 469.921 64.0563 465.267 55.1897ZM451.08 100.73C456.533 97.8675 460.853 93.6952 463.911 88.8176L453.747 84.0926L435.784 93.5221L433.968 104.525C439.724 104.779 445.618 103.597 451.08 100.73ZM419.58 73.611L433.315 87.1998L449.991 78.446L446.622 59.3584L427.938 56.6378L419.58 73.611ZM427.294 103.552L429.113 92.533L414.315 77.8911L402.904 79.8394C403.534 82.1216 404.397 84.3661 405.539 86.5432C410.192 95.4067 418.269 101.307 427.294 103.552ZM399.567 89.6785C397.549 85.835 396.234 81.8133 395.534 77.7507C395.529 77.7266 395.515 77.7073 395.51 77.6833C395.503 77.6487 395.516 77.6152 395.514 77.5821C392.702 60.8039 400.727 43.3575 416.591 35.0301C432.461 26.6995 451.387 30.0052 463.599 41.8604C463.62 41.8796 463.646 41.8851 463.667 41.9043C463.681 41.9161 463.685 41.9372 463.7 41.952C466.654 44.8355 469.22 48.208 471.239 52.0544C477.43 63.8476 477.164 77.3162 471.775 88.4797C471.748 88.5587 471.756 88.646 471.716 88.7237C471.669 88.8288 471.587 88.9058 471.524 89.0036C467.866 96.322 461.998 102.617 454.215 106.703C446.439 110.785 437.939 112.039 429.843 110.903C429.725 110.897 429.614 110.924 429.495 110.903C429.405 110.889 429.331 110.829 429.245 110.809C416.994 108.902 405.757 101.472 399.567 89.6785ZM479.224 161.601L467.128 138.558C462.692 142.59 461.304 149.234 464.217 154.783C467.13 160.331 473.387 162.963 479.224 161.601ZM473.101 135.423L485.197 158.466C489.636 154.433 491.021 147.79 488.108 142.241C485.195 136.693 478.941 134.06 473.101 135.423ZM499.826 200.848L482.441 167.729C473.231 170.743 462.896 166.779 458.244 157.918C453.593 149.057 456.2 138.299 463.911 132.43L455.932 117.23C455.065 115.578 455.702 113.541 457.35 112.676C458.999 111.81 461.038 112.443 461.904 114.094L469.884 129.295C479.094 126.281 489.429 130.245 494.081 139.106C498.732 147.966 496.125 158.725 488.414 164.594L505.799 197.712C506.666 199.364 506.029 201.401 504.38 202.267C502.732 203.132 500.693 202.499 499.826 200.848ZM539.103 50.7136L592.404 152.25C596.726 160.483 593.544 170.698 585.31 175.02L435.992 253.404C427.759 257.726 417.544 254.544 413.222 246.31L359.921 144.774C355.599 136.54 358.781 126.326 367.015 122.004L399.865 104.759C401.513 103.894 403.552 104.527 404.419 106.178C405.286 107.829 404.648 109.867 403 110.732L370.15 127.976C365.21 130.569 363.301 136.699 365.894 141.639L419.195 243.175C421.788 248.114 427.917 250.024 432.857 247.431L582.175 169.047C587.114 166.455 589.024 160.325 586.431 155.385L533.13 53.849C530.537 48.9095 524.408 47 519.468 49.5929L486.618 66.8373C484.967 67.7042 482.931 67.07 482.064 65.4186C481.197 63.7671 481.831 61.7314 483.483 60.8645L516.333 43.6202C524.566 39.2981 534.781 42.4802 539.103 50.7136Z" fill="white"/>
</g>
<defs>
<linearGradient id="paint0_linear" x1="631" y1="-91" x2="1.88053e-05" y2="540" gradientUnits="userSpaceOnUse">
<stop stop-color="#2EBAAB"/>
<stop offset="1" stop-color="#2EBAAB" stop-opacity="0.8"/>
</linearGradient>
<clipPath id="clip0">
<rect width="202.37" height="202.37" fill="white" transform="translate(327 82.0602) rotate(-27.6969)"/>
</clipPath>
</defs>
</svg>
