<svg width="156" height="155" viewBox="0 0 156 155" fill="none" xmlns="http://www.w3.org/2000/svg">
<g opacity="1">
<g opacity="0.2" filter="url(#filter0_d)">
<ellipse cx="77.7407" cy="74.0333" rx="73.7407" ry="72.8628" fill="url(#paint0_linear)"/>
</g>
<path d="M82.9193 120.478L78.2343 106.059L65.2052 101.686L52.9443 110.594C53.0844 118.335 55.5651 125.503 59.7085 131.421H74.8669L82.9193 120.478Z" fill="white"/>
<path d="M78.2348 106.059L90.5002 97.1477V83.3082L78.2348 74.3975L78.2378 74.3897C71.1205 76.8471 64.9738 81.3842 60.5225 87.2711L65.2056 101.686L78.2348 106.059Z" fill="white"/>
<path d="M90.5 83.3083V97.148L102.765 106.059L115.795 101.686L120.478 87.2714C116.026 81.3844 109.88 76.8474 102.762 74.39L102.765 74.3978L90.5 83.3083Z" fill="white"/>
<path d="M102.766 106.059L98.0806 120.478L106.133 131.421H121.291C125.435 125.503 127.916 118.335 128.056 110.594L115.795 101.686L102.766 106.059Z" fill="white"/>
<path d="M106.133 131.421L98.0804 120.478H82.9196L74.8672 131.421L79.5519 145.841L79.5488 145.844C83.0141 146.899 86.6893 147.467 90.5 147.467C94.3107 147.467 97.9859 146.899 101.451 145.844L101.448 145.841L106.133 131.421Z" fill="white"/>
<path d="M78.2344 106.059L82.9194 120.478H98.0802L102.765 106.059L90.4998 97.1479L78.2344 106.059Z" fill="#2EBAAB"/>
<path d="M90.4998 83.3082L102.765 74.3976L102.762 74.3898C102.238 74.2093 101.708 74.0398 101.173 73.8812C97.7883 72.8795 94.2079 72.343 90.4998 72.343C86.7917 72.343 83.2115 72.8795 79.8269 73.8812C79.2919 74.0398 78.7616 74.2093 78.2374 74.3898L78.2344 74.3976L90.4998 83.3082Z" fill="#2EBAAB"/>
<path d="M60.5221 87.2711C60.1846 87.7159 59.8579 88.1685 59.5406 88.629C55.5496 94.4257 53.1466 101.395 52.9505 108.915C52.9427 109.245 52.938 109.573 52.938 109.905C52.938 110.135 52.9395 110.365 52.9442 110.594L65.2051 101.686L60.5221 87.2711Z" fill="#2EBAAB"/>
<path d="M74.8669 131.421H59.7085C60.0288 131.88 60.3602 132.331 60.7008 132.775C65.0792 138.472 71.0564 142.878 77.9621 145.322C78.4863 145.507 79.015 145.681 79.5485 145.844L79.5516 145.841L74.8669 131.421Z" fill="#2EBAAB"/>
<path d="M101.448 145.841L101.451 145.844C101.984 145.681 102.513 145.507 103.037 145.322C109.943 142.878 115.92 138.472 120.299 132.775C120.639 132.331 120.97 131.88 121.291 131.421H106.132L101.448 145.841Z" fill="#2EBAAB"/>
<path d="M128.049 108.916C127.853 101.395 125.45 94.4259 121.459 88.6292C121.142 88.1688 120.815 87.7162 120.478 87.2713L115.794 101.686L128.055 110.594C128.06 110.365 128.062 110.135 128.062 109.905C128.061 109.573 128.057 109.245 128.049 108.916Z" fill="#2EBAAB"/>
<path d="M90.4999 70.8161C68.8983 70.6177 50.8346 89.0135 51.418 110.621C51.5278 129.095 65.8275 145.704 84.0886 148.448C84.8181 148.448 85.4636 147.923 85.5917 147.18C85.7346 146.349 85.177 145.559 84.3459 145.416C83.1401 145.208 81.9357 144.935 80.7558 144.605L76.5616 131.695L83.6918 122.005H97.3083L104.438 131.695L100.235 144.632C99.0632 144.956 97.8687 145.22 96.6542 145.416C95.8231 145.559 95.2653 146.349 95.4086 147.18C95.5518 148.011 96.3426 148.568 97.1723 148.425C115.616 145.43 129.795 128.618 129.589 109.905C129.773 88.5684 111.826 70.6234 90.4999 70.8161ZM106.905 129.894L99.7747 120.204L103.98 107.262L115.534 103.384L126.514 111.361C126.312 118.072 124.097 124.47 120.449 129.894H106.905V129.894ZM74.0949 129.894H60.5626C56.9056 124.434 54.6909 118.009 54.4703 111.372L65.4656 103.384L77.0197 107.262L81.2248 120.204L74.0949 129.894ZM54.5318 107.553C54.8832 101.423 56.8608 95.6602 60.0284 90.6932L63.4103 101.103L54.5318 107.553ZM80.0295 106.642L90.4999 99.0353L100.97 106.642L96.971 118.951H84.0287L80.0295 106.642ZM117.589 101.103L120.971 90.6934C124.139 95.6607 126.117 101.424 126.468 107.553L117.589 101.103ZM118.765 87.6026L114.58 100.483L103.026 104.361L92.0269 96.3698V84.0862L103.029 76.0936C109.228 78.4234 114.678 82.4585 118.765 87.6026ZM99.4064 74.9504L90.4999 81.4208L81.5936 74.9506C84.4563 74.2165 87.4424 73.8379 90.4999 73.8699C93.5572 73.8376 96.5435 74.2162 99.4064 74.9504ZM77.9714 76.0938L88.973 84.0862V96.3698L77.9738 104.361L66.42 100.483L62.2352 87.6023C66.3219 82.4583 71.7716 78.4235 77.9714 76.0938ZM62.8426 132.948H73.7576L77.1586 143.417C71.561 141.221 66.6519 137.542 62.8426 132.948ZM103.841 143.417L107.242 132.948H118.158C114.341 137.526 109.423 141.183 103.841 143.417Z" fill="#252729"/>
<path d="M90.4995 148.993C91.3428 148.993 92.0264 148.31 92.0264 147.466C92.0264 146.623 91.3428 145.939 90.4995 145.939C89.6563 145.939 88.9727 146.623 88.9727 147.466C88.9727 148.31 89.6563 148.993 90.4995 148.993Z" fill="#252729"/>
<circle cx="55.5015" cy="71.3997" r="4.0967" fill="white"/>
<circle cx="99.3946" cy="80.7636" r="4.0967" fill="white"/>
<circle cx="122.219" cy="86.616" r="4.0967" fill="white"/>
<path d="M138.568 74.8784C137.659 78.9912 133.126 81.4862 128.444 80.4514L88.6318 71.6518C87.1063 71.3146 85.7608 70.4589 84.8915 69.2729C84.0179 68.0809 82.6654 67.2207 81.1321 66.8817L73.9084 65.2851C70.9343 64.6277 67.8529 65.0351 65.3415 66.4176L52.9549 63.6797C48.8276 62.7674 45.9832 59.3796 46.0717 55.774L45.5316 58.2173C44.6361 62.2691 47.6493 66.38 52.2619 67.3995L64.6485 70.1374C67.1597 68.755 70.2413 68.3476 73.2153 69.0049L80.439 70.6015C81.9724 70.9405 83.3247 71.8005 84.1984 72.9928C85.0678 74.1787 86.4131 75.0346 87.9388 75.3716L127.751 84.1712C132.433 85.2061 136.966 82.7109 137.875 78.5982L139.521 71.1514L139.398 71.1242L138.568 74.8784Z" fill="white"/>
<path d="M139.397 71.1242L140.213 67.4316L47.8702 47.0507L46.2242 54.4975C46.1301 54.9236 46.0815 55.3503 46.0712 55.774L47.1771 50.7705L139.397 71.1242Z" fill="#2EBAAB"/>
<path d="M52.9546 63.6798L65.3412 66.4177C67.8524 65.0353 70.934 64.6278 73.908 65.2852L81.1317 66.8818C82.6652 67.2207 84.0174 68.0808 84.8912 69.273C85.7605 70.459 87.1058 71.3148 88.6315 71.6519L128.444 80.4515C133.126 81.4863 137.658 78.9911 138.567 74.8785L139.397 71.1243L47.1774 50.7705L46.0715 55.774C45.983 59.3796 48.8272 62.7675 52.9546 63.6798Z" fill="#2EBAAB"/>
<path d="M51.0461 33.2679L49.1181 41.9905L51.046 33.2678L51.0461 33.2679Z" fill="#2EBAAB"/>
<path d="M135.778 62.8794L106.571 43.7375C102.394 40.9997 97.6764 39.0211 92.7095 37.9232L89.2596 37.1607L88.2726 41.6263C87.6074 44.6358 84.6288 46.5364 81.6191 45.872L67.6875 42.7962C65.0517 42.2137 62.7959 40.6025 61.5654 38.4238L60.174 35.9601C58.9476 33.7885 56.6991 32.1828 54.0721 31.6021C52.6728 31.2928 51.3181 32.0384 51.0464 33.2676L49.1184 41.9901C48.2228 46.0419 51.236 50.1528 55.8486 51.1723L68.2352 53.9102C70.7464 52.5278 73.828 52.1204 76.802 52.7777L84.0258 54.3743C85.5592 54.7133 86.9115 55.5733 87.7853 56.7655C88.6546 57.9514 90 58.8073 91.5255 59.1444L131.338 67.9441C134.174 68.5709 136.953 67.9011 138.907 66.3629C138.245 65.0114 137.178 63.7973 135.778 62.8794Z" fill="#2EBAAB"/>
<path d="M110.886 46.5656L100.352 53.2859L93.2158 48.7191L103.708 42.0256L110.886 46.5656Z" fill="white"/>
<path d="M55.8486 51.1725L68.2352 53.9104C69.0613 53.4557 69.9498 53.1086 70.8753 52.8681L62.5164 39.7658C62.1557 39.3482 61.8348 38.9006 61.5656 38.4239L60.8342 37.129L59.2604 34.6621C57.9753 33.1559 56.1426 32.0597 54.0723 31.6022C52.673 31.2929 51.3183 32.0385 51.0466 33.2679L47.178 50.7707L49.1187 41.9904C48.2231 46.0422 51.2362 50.1532 55.8486 51.1725Z" fill="#2EBAAB"/>
<path d="M131.338 67.9441L91.5254 59.1445C89.9998 58.8074 88.6543 57.9516 87.7852 56.7656C86.9114 55.5736 85.559 54.7134 84.0256 54.3744L76.8019 52.7778C74.8061 52.3367 72.7627 52.3773 70.8751 52.8681C69.9497 53.1087 69.0612 53.4555 68.2351 53.9103L55.8484 51.1724C51.2359 50.1529 48.2228 46.0419 49.1182 41.9902L47.1776 50.7705C46.282 54.8223 49.2952 58.9332 53.9078 59.9527L66.2945 62.6905C68.8058 61.3081 71.8873 60.9007 74.8614 61.558L82.0851 63.1546C83.6185 63.4936 84.9708 64.3537 85.8445 65.5459C86.7138 66.7318 88.0591 67.5877 89.5847 67.9248L129.397 76.7243C134.079 77.7592 138.612 75.264 139.521 71.1514C139.879 69.5294 139.642 67.8616 138.907 66.3629C136.953 67.9011 134.174 68.571 131.338 67.9441Z" fill="white"/>
<path d="M125.011 55.8228L114.755 62.3661L107.618 57.7992L117.96 51.2016L125.011 55.8228Z" fill="white"/>
<path d="M136.755 61.3885L107.548 42.2466C106.584 41.6147 105.595 41.0253 104.586 40.4746C104.575 40.4687 104.565 40.4631 104.554 40.4573C100.985 38.5132 97.1444 37.0777 93.0941 36.1825L89.6441 35.4201C88.6826 35.2077 87.7313 35.8146 87.5185 36.7761L86.5315 41.2418C86.0795 43.2867 84.0482 44.5831 82.0031 44.1316L68.0722 41.0556C66.4443 40.6959 64.9793 39.8424 63.9433 38.6884L62.3627 36.211L61.726 35.0833C61.4162 34.5347 61.0527 34.0199 60.6472 33.5389C60.6457 33.5368 60.644 33.5352 60.6425 33.5334C59.1075 31.715 56.9357 30.4093 54.4566 29.8612C53.3568 29.6183 52.2273 29.7726 51.2763 30.2962C50.2652 30.8535 49.5455 31.7964 49.3053 32.8829L45.4371 50.3846C45.437 50.3851 45.4369 50.3853 45.4368 50.3858L43.7909 57.8326C42.7941 62.3429 45.6424 66.9066 50.2876 68.6653L49.7383 71.1505C49.102 74.0299 50.9268 76.8902 53.8063 77.5269L54.3506 77.6472C55.7903 77.9653 57.2252 77.6682 58.3798 76.9317C59.5345 76.195 60.4087 75.019 60.727 73.5793L61.2502 71.212L64.2637 71.8781C64.6865 71.9714 65.1289 71.9078 65.5083 71.699C67.6266 70.5328 70.2955 70.1854 72.8305 70.7456L80.0544 72.3421C81.1593 72.5865 82.1458 73.2077 82.7606 74.0464C83.8921 75.5904 85.5946 76.6791 87.5541 77.1122L94.1144 78.5622L93.6094 80.8472C92.9731 83.7266 94.7979 86.587 97.6771 87.2236L98.2212 87.3439C98.2213 87.3438 98.2213 87.3438 98.2213 87.3438C99.6614 87.6621 101.096 87.365 102.251 86.6283C103.405 85.8918 104.28 84.7154 104.598 83.276L105.103 80.9911L116.462 83.5017L115.957 85.7866C115.321 88.666 117.145 91.5264 120.025 92.1631L120.569 92.2834C122.009 92.6015 123.444 92.3043 124.598 91.5678C125.753 90.8311 126.627 89.6551 126.945 88.2152L127.451 85.9285C130.111 86.4964 132.82 86.125 135.088 84.8766C135.282 84.7699 135.47 84.6581 135.654 84.5411C137.712 83.2281 139.109 81.2758 139.616 78.9828L141.262 71.536C142.105 67.7187 140.336 63.7356 136.755 61.3885ZM105.594 45.2286L107.603 46.5455L100.354 51.1702L96.5268 48.7214L103.765 44.1034C104.384 44.462 104.994 44.8358 105.594 45.2286ZM121.728 55.8028L114.756 60.2505L110.929 57.8016L117.947 53.3246L121.728 55.8028ZM52.7869 33.6527C52.8125 33.5361 52.9285 33.457 52.9957 33.4198C53.1849 33.3157 53.4369 33.2877 53.687 33.343C55.3254 33.7052 56.7981 34.5699 57.8315 35.7379L59.3059 38.0491L60.0127 39.3008C60.3215 39.8474 60.6831 40.3606 61.0866 40.8403L67.2703 50.533C67.7998 51.363 68.9021 51.6065 69.732 51.0771C70.5619 50.5476 70.8057 49.4454 70.2761 48.6153L67.7353 44.6327L81.2346 47.6132C85.1991 48.4883 89.1371 45.9749 90.013 42.0111L90.6152 39.2863L92.3244 39.6641C95.0214 40.2602 97.6167 41.1154 100.088 42.22L92.2567 47.2161C91.7439 47.5432 91.4331 48.1095 91.4327 48.7178C91.4324 49.3262 91.7423 49.8928 92.2546 50.2206L99.391 54.7873C99.9759 55.1617 100.725 55.1623 101.311 54.7887L110.873 48.6885L114.676 51.1815L106.659 56.2964C106.146 56.6235 105.835 57.1898 105.835 57.7981C105.835 58.4065 106.144 58.9731 106.657 59.3009L113.793 63.8675C114.378 64.2419 115.128 64.2424 115.713 63.8689L124.997 57.9457L134.8 64.3704C137.131 65.898 138.301 68.4083 137.78 70.7659C137.78 70.7661 137.78 70.7664 137.78 70.7665L137.779 70.7685C137.083 73.9134 133.495 75.8044 129.782 74.9835L89.9694 66.1839C88.872 65.9414 87.8926 65.3247 87.2822 64.4918C86.1459 62.9418 84.4368 61.8488 82.4696 61.4141L75.2456 59.8174C72.0654 59.1146 68.8279 59.4689 66.0503 60.811L54.2924 58.2123C50.6471 57.4066 48.2362 54.2408 48.9182 51.1557L52.7869 33.6527ZM57.2455 72.8099C57.0334 73.7695 56.0799 74.378 55.12 74.1658L54.5757 74.0455C53.6159 73.8334 53.0076 72.8799 53.2198 71.9201L53.7247 69.6352L57.7505 70.5249L57.2455 72.8099ZM101.621 80.2214L101.116 82.5063C100.904 83.4658 99.9508 84.0744 98.9907 83.8622L98.4465 83.7418C97.4867 83.5297 96.8784 82.5762 97.0906 81.6164L97.5955 79.3315L100.141 79.8941L101.621 80.2214ZM121.338 88.8018L120.794 88.6815C119.834 88.4693 119.226 87.5158 119.438 86.556L119.943 84.2712L123.969 85.161L123.464 87.4458C123.252 88.4058 122.298 89.0139 121.338 88.8018ZM133.368 81.7532C131.836 82.5968 129.977 82.8373 128.136 82.4303L104.133 77.125C104.132 77.1249 104.132 77.1246 104.132 77.1247L96.6245 75.4654C96.624 75.4653 96.6238 75.4653 96.6233 75.4652L88.3235 73.6307C87.2261 73.3881 86.2466 72.7713 85.6362 71.9385C84.4999 70.3885 82.7908 69.2955 80.8235 68.8605L73.5996 67.264C70.4194 66.5612 67.1819 66.9155 64.4043 68.2576L52.6465 65.6588C49.0012 64.8531 46.5903 61.6874 47.2724 58.6022L47.4044 58.005C48.8705 59.7823 50.9958 61.1348 53.523 61.6934L65.9095 64.4312C66.3323 64.5245 66.7747 64.4609 67.1541 64.2521C69.2724 63.0859 71.9413 62.7385 74.4763 63.2987L81.7003 64.8954C82.8051 65.1395 83.7916 65.7608 84.4065 66.5996C85.538 68.1434 87.2404 69.2322 89.1999 69.6653L129.013 78.4651C131.592 79.0351 134.141 78.6904 136.255 77.6655L136.134 78.2132C135.807 79.6945 134.825 80.9509 133.368 81.7532Z" fill="#252729"/>
<path d="M73.4884 56.9656C73.8837 56.7134 74.1689 56.3052 74.2701 55.8473C74.3711 55.3895 74.2847 54.8991 74.0325 54.5038C73.7804 54.1085 73.3722 53.8234 72.9143 53.7222C72.4564 53.621 71.9661 53.7075 71.5708 53.9597C71.1755 54.2119 70.8904 54.6201 70.7892 55.0779C70.6881 55.5357 70.7745 56.0262 71.0267 56.4214C71.2789 56.8167 71.687 57.1019 72.1449 57.2031C72.6028 57.3043 73.0932 57.2177 73.4884 56.9656Z" fill="#252729"/>
</g>
<defs>
<filter id="filter0_d" x="0" y="1.17049" width="155.481" height="153.726" filterUnits="userSpaceOnUse" color-interpolation-filters="sRGB">
<feFlood flood-opacity="0" result="BackgroundImageFix"/>
<feColorMatrix in="SourceAlpha" type="matrix" values="0 0 0 0 0 0 0 0 0 0 0 0 0 0 0 0 0 0 127 0"/>
<feOffset dy="4"/>
<feGaussianBlur stdDeviation="2"/>
<feColorMatrix type="matrix" values="0 0 0 0 0 0 0 0 0 0 0 0 0 0 0 0 0 0 0.25 0"/>
<feBlend mode="normal" in2="BackgroundImageFix" result="effect1_dropShadow"/>
<feBlend mode="normal" in="SourceGraphic" in2="effect1_dropShadow" result="shape"/>
</filter>
<linearGradient id="paint0_linear" x1="12.0184" y1="26.7786" x2="132.056" y2="148.334" gradientUnits="userSpaceOnUse">
<stop stop-color="#87C8C1"/>
<stop offset="1" stop-color="#3DCFBF"/>
</linearGradient>
</defs>
</svg>
