<svg width="209" height="166" viewBox="0 0 209 166" fill="none" xmlns="http://www.w3.org/2000/svg">
<g opacity="1">
<ellipse opacity="0.2" cx="117.661" cy="73.6924" rx="73.7407" ry="72.8628" fill="url(#paint0_linear)"/>
<circle cx="43.5849" cy="82.816" r="3.83932" transform="rotate(29.4938 43.5849 82.816)" fill="white"/>
<circle cx="75.0692" cy="110.707" r="3.83932" transform="rotate(29.4938 75.0692 110.707)" fill="white"/>
<circle cx="90.9872" cy="126.012" r="3.83932" transform="rotate(29.4938 90.9872 126.012)" fill="white"/>
<path d="M109.739 123.98C107.1 126.916 102.251 126.86 98.9097 123.855L70.4937 98.308C69.4049 97.329 68.7022 96.0102 68.5403 94.6417C68.3776 93.2662 67.6712 91.9405 66.5769 90.9565L61.421 86.3211C59.2983 84.4127 56.5968 83.3232 53.9103 83.2922L45.0695 75.3437C42.1237 72.6952 41.3666 68.6193 43.1023 65.7189L41.5345 67.4628C38.9345 70.3547 39.4957 75.0984 42.7879 78.0582L51.6287 86.0067C54.3149 86.0378 57.0167 87.1272 59.1394 89.0357L64.2953 93.6711C65.3897 94.6551 66.096 95.9806 66.2586 97.3562C66.4205 98.7248 67.123 100.044 68.2121 101.023L96.628 126.57C99.9698 129.574 104.818 129.63 107.457 126.695L112.236 121.38L112.148 121.301L109.739 123.98Z" fill="white"/>
<path d="M112.149 121.301L114.518 118.665L48.5953 59.4332L43.8167 64.7483C43.5433 65.0524 43.3068 65.378 43.1029 65.719L46.3136 62.1478L112.149 121.301Z" fill="#2EBAAB"/>
<path d="M45.0699 75.3437L53.9107 83.2922C56.597 83.3233 59.2987 84.4127 61.4214 86.3211L66.5773 90.9565C67.6717 91.9405 68.378 93.2661 68.5406 94.6417C68.7025 96.0102 69.4051 97.3291 70.4941 98.308L98.91 123.855C102.252 126.86 107.1 126.916 109.739 123.98L112.148 121.301L46.3135 62.1477L43.1028 65.719C41.3671 68.6193 42.124 72.6952 45.0699 75.3437Z" fill="#2EBAAB"/>
<path d="M57.5448 49.6554L51.9475 55.881L57.5448 49.6552L57.5448 49.6554Z" fill="#2EBAAB"/>
<path d="M113 112.905L98.0068 83.8147C95.8624 79.6539 92.9275 75.8635 89.3824 72.6761L86.9201 70.4624L84.0545 73.6497C82.1234 75.7977 78.8167 75.9738 76.6682 74.0431L66.723 65.1061C64.8417 63.4148 63.745 61.0597 63.7465 58.7147L63.7482 56.063C63.7498 53.7258 62.6565 51.3785 60.7815 49.6926C59.7828 48.7948 58.3337 48.7779 57.545 49.6552L51.9477 55.8808C49.3477 58.7728 49.9088 63.5164 53.201 66.4763L62.0418 74.4248C64.7281 74.4558 67.4298 75.5452 69.5525 77.4537L74.7084 82.0891C75.8029 83.0731 76.5091 84.3986 76.6719 85.7742C76.8338 87.1428 77.5364 88.4616 78.6252 89.4405L107.041 114.988C109.065 116.808 111.641 117.544 113.945 117.191C114.028 115.783 113.719 114.3 113 112.905Z" fill="#2EBAAB"/>
<path d="M100.222 88.1125L88.5282 88.7341L84.814 81.7162L96.4608 81.0971L100.222 88.1125Z" fill="white"/>
<path d="M53.2006 66.4763L62.0414 74.4248C62.925 74.435 63.8099 74.5618 64.6758 74.7927L63.9026 60.248C63.8011 59.741 63.7458 59.2277 63.7462 58.7148L63.747 57.321L63.6015 54.5826C63.2482 52.761 62.2589 51.0212 60.7812 49.6927C59.7825 48.7948 58.3334 48.7779 57.5445 49.6554L46.3131 62.1479L51.9474 55.881C49.3474 58.7729 49.9084 63.5166 53.2006 66.4763Z" fill="#2EBAAB"/>
<path d="M107.041 114.988L78.6249 89.4406C77.5361 88.4616 76.8334 87.1428 76.6716 85.7743C76.5088 84.3988 75.8026 83.0731 74.7081 82.0891L69.5522 77.4537C68.1278 76.173 66.4421 75.2633 64.6759 74.7927C63.8101 74.562 62.9253 74.435 62.0415 74.4248L53.2007 66.4763C49.9085 63.5164 49.3475 58.7728 51.9473 55.8808L46.3131 62.1477C43.7131 65.0397 44.2743 69.7833 47.5664 72.7432L56.4074 80.6917C59.0937 80.7227 61.7954 81.8121 63.9181 83.7206L69.074 88.356C70.1685 89.34 70.8747 90.6655 71.0373 92.0412C71.1993 93.4097 71.9018 94.7285 72.9906 95.7075L101.407 121.255C104.749 124.259 109.597 124.315 112.236 121.38C113.277 120.222 113.853 118.752 113.945 117.191C111.641 117.544 109.065 116.808 107.041 114.988Z" fill="white"/>
<path d="M107.473 102.181L96.0873 102.786L92.373 95.7682L103.853 95.158L107.473 102.181Z" fill="white"/>
<path d="M114.485 112.14L99.492 83.0494C98.997 82.0889 98.4623 81.152 97.893 80.237C97.8873 80.2274 97.8813 80.218 97.8754 80.2084C95.8607 76.9756 93.3904 74.0328 90.4995 71.4337L88.037 69.2199C87.3507 68.6031 86.2946 68.6592 85.6774 69.3454L82.8118 72.5327C81.4996 73.9922 79.2445 74.1125 77.7846 72.8006L67.84 63.8637C66.6781 62.8192 65.8769 61.4471 65.5642 60.0277L65.418 57.2775L65.4189 56.0638C65.4193 55.4734 65.3603 54.8858 65.2515 54.3063C65.2512 54.304 65.2506 54.3018 65.2502 54.2997C64.837 52.1081 63.6679 50.041 61.8986 48.45C61.1135 47.7444 60.121 47.3491 59.1036 47.3374C58.0217 47.3255 56.9995 47.7627 56.3023 48.5381L45.0717 61.0298C45.0714 61.0302 45.0712 61.0304 45.0709 61.0307L40.2923 66.3458C37.3982 69.5651 37.6159 74.602 40.5936 78.1799L38.9989 79.9536C37.1514 82.0088 37.3201 85.1841 39.3752 87.032L39.7637 87.3813C40.7914 88.3051 42.099 88.7248 43.3806 88.6567C44.6624 88.5885 45.9181 88.0326 46.8421 87.005L48.3611 85.3154L50.5119 87.2491C50.8138 87.5204 51.204 87.6726 51.6098 87.6773C53.8759 87.7034 56.2132 88.6514 58.0226 90.278L63.1787 94.9135C63.9672 95.6226 64.4853 96.5845 64.5999 97.5523C64.8105 99.3338 65.6969 101.007 67.0955 102.265L71.7778 106.475L70.3116 108.106C68.464 110.161 68.6328 113.336 70.6877 115.184L71.076 115.533C71.0761 115.533 71.0761 115.533 71.0761 115.533C72.104 116.457 73.4113 116.877 74.6932 116.808C75.9747 116.74 77.2307 116.184 78.1545 115.157L79.6208 113.526L87.7282 120.815L86.2619 122.446C84.4144 124.501 84.5831 127.676 86.6382 129.524L87.0267 129.873C88.0544 130.797 89.362 131.217 90.6436 131.149C91.9254 131.081 93.1811 130.525 94.1051 129.497L95.5724 127.865C97.4806 129.556 99.8616 130.502 102.288 130.53C102.495 130.533 102.7 130.529 102.904 130.518C105.188 130.396 107.229 129.448 108.7 127.812L113.479 122.497C115.928 119.772 116.323 115.707 114.485 112.14ZM96.5217 84.5801L97.5531 86.5813L89.5059 87.009L87.5142 83.2457L95.5495 82.8186C95.8886 83.3965 96.2141 83.9831 96.5217 84.5801ZM104.804 100.65L97.0645 101.061L95.0728 97.2979L102.863 96.8838L104.804 100.65ZM58.7871 50.7724C58.8618 50.6891 58.9929 50.6781 59.0649 50.6788C59.2673 50.6811 59.4857 50.7746 59.6643 50.9351C60.8336 51.9865 61.636 53.3713 61.94 54.8009L62.0764 57.3665L62.0754 58.7137C62.0751 59.302 62.1333 59.8875 62.2411 60.465L62.8131 71.2246C62.862 72.1461 63.6488 72.8533 64.5701 72.8043C65.4914 72.7553 66.1988 71.9687 66.1498 71.0473L65.9148 66.6263L75.5513 75.286C78.3815 77.8291 82.7534 77.5958 85.2968 74.7666L87.0452 72.8218L88.2651 73.9185C90.1902 75.6492 91.9126 77.5443 93.4188 79.5855L84.7255 80.0477C84.1562 80.0779 83.6414 80.3964 83.3605 80.8925C83.0795 81.3886 83.0708 81.9937 83.3375 82.4975L87.0517 89.5154C87.3562 90.0907 87.967 90.4368 88.617 90.4023L99.2315 89.8381L101.184 93.6267L92.284 94.0998C91.7148 94.1301 91.2 94.4485 90.919 94.9447C90.6381 95.4408 90.6294 96.0459 90.8961 96.5497L94.6105 103.568C94.9149 104.143 95.5259 104.489 96.1758 104.454L106.482 103.907L111.514 113.67C112.711 115.992 112.507 118.579 110.994 120.262C110.994 120.262 110.994 120.262 110.994 120.262L110.992 120.264C108.973 122.508 105.174 122.395 102.524 120.012L74.108 94.4648C73.3247 93.7606 72.8103 92.8057 72.6967 91.8447C72.485 90.056 71.5951 88.3759 70.191 87.1136L65.035 82.478C62.765 80.4373 59.9607 79.2326 57.0757 79.0458L48.6835 71.5009C46.0816 69.1617 45.5757 65.467 47.5556 63.265L58.7871 50.7724ZM44.3571 84.771C43.7413 85.4559 42.6828 85.5124 41.9977 84.8965L41.6092 84.5472C40.9241 83.9313 40.8679 82.8729 41.4838 82.1878L42.9499 80.5569L45.8234 83.1401L44.3571 84.771ZM77.1358 111.292L75.6695 112.922C75.0539 113.607 73.9954 113.664 73.3101 113.048L72.9218 112.699C72.2367 112.083 72.1805 111.024 72.7964 110.339L74.2625 108.708L76.0793 110.342L77.1358 111.292ZM89.2605 127.388L88.872 127.039C88.1869 126.423 88.1307 125.365 88.7466 124.68L90.2129 123.049L93.0862 125.632L91.6199 127.263C91.004 127.948 89.9456 128.004 89.2605 127.388ZM102.326 127.189C100.686 127.17 99.0597 126.509 97.7454 125.327L80.6133 109.925C80.6129 109.924 80.6127 109.924 80.6124 109.924L75.2542 105.107C75.2539 105.106 75.2537 105.106 75.2534 105.106L69.3295 99.7799C68.5462 99.0757 68.0318 98.1206 67.9181 97.1596C67.7064 95.371 66.8165 93.6908 65.4125 92.4283L60.2564 87.7929C57.9865 85.7523 55.1821 84.5475 52.2971 84.3607L43.9051 76.8158C41.3033 74.4766 40.7973 70.7819 42.7772 68.5799L43.1604 68.1537C43.5363 70.2799 44.6459 72.3638 46.4497 73.9855L55.2905 81.9339C55.5923 82.2051 55.9825 82.3574 56.3883 82.3621C58.6544 82.3882 60.9917 83.3362 62.8011 84.9628L67.9572 89.5984C68.7458 90.3073 69.2639 91.2693 69.3784 92.2372C69.589 94.0186 70.4754 95.6922 71.874 96.9497L100.29 122.497C102.131 124.152 104.369 125.047 106.567 125.187L106.215 125.578C105.265 126.635 103.884 127.207 102.326 127.189Z" fill="#252729"/>
<path d="M64.917 79.3409C65.3558 79.3175 65.7768 79.1161 66.0706 78.7893C66.3642 78.4625 66.52 78.0226 66.4967 77.5838C66.4734 77.145 66.272 76.7241 65.9452 76.4303C65.6184 76.1364 65.1784 75.9808 64.7397 76.0041C64.3009 76.0274 63.8799 76.2288 63.5861 76.5557C63.2925 76.8825 63.1366 77.3224 63.16 77.7612C63.1833 78.2 63.3847 78.6209 63.7115 78.9147C64.0383 79.2085 64.4782 79.3642 64.917 79.3409Z" fill="#252729"/>
<path d="M156.003 60.4799L154.687 46.3571L143.692 39.6909L130.672 45.3043C129.211 52.3987 130.004 59.4511 132.571 65.7034L146.407 68.8152L156.003 60.4799Z" fill="white"/>
<path d="M154.687 46.3571L167.712 40.741L170.553 28.1089L161.187 17.4577L161.191 17.4512C154.19 18.2332 147.649 21.1125 142.377 25.5721L143.693 39.6909L154.687 46.3571Z" fill="white"/>
<path d="M170.553 28.1089L167.711 40.7412L177.077 51.3931L189.868 50.0762L197.101 37.8802C194.247 31.5931 189.568 26.19 183.576 22.486L183.577 22.4937L170.553 28.1089Z" fill="white"/>
<path d="M177.077 51.3928L169.841 63.5921L174.944 75.2337L188.78 78.3455C193.777 73.7943 197.513 67.7603 199.23 60.7235L189.867 50.0762L177.077 51.3928Z" fill="white"/>
<path d="M174.945 75.2338L169.841 63.5922L156.003 60.4799L146.407 68.8154L147.723 82.9388L147.719 82.9411C150.666 84.615 153.904 85.8876 157.382 86.6699C160.86 87.4521 164.331 87.6884 167.711 87.4373L167.709 87.4338L174.945 75.2338Z" fill="white"/>
<path d="M154.687 46.3571L156.003 60.4798L169.841 63.5921L177.077 51.3929L167.711 40.7411L154.687 46.3571Z" fill="#2EBAAB"/>
<path d="M170.553 28.1088L183.577 22.4935L183.576 22.4857C183.135 22.2134 182.686 21.9498 182.23 21.6952C179.346 20.0862 176.188 18.8614 172.804 18.1002C169.419 17.339 166.041 17.0938 162.746 17.3132C162.225 17.3482 161.707 17.394 161.191 17.4512L161.187 17.4577L170.553 28.1088Z" fill="#2EBAAB"/>
<path d="M142.377 25.572C141.977 25.9087 141.586 26.2547 141.202 26.6099C136.369 31.0816 132.745 36.9498 131.022 43.7736C130.947 44.0731 130.876 44.3716 130.808 44.674C130.761 44.8842 130.715 45.0945 130.672 45.3043L143.692 39.6909L142.377 25.572Z" fill="#2EBAAB"/>
<path d="M146.407 68.8153L132.571 65.7035C132.769 66.188 132.979 66.6678 133.199 67.1423C136.026 73.2414 140.577 78.4903 146.378 82.1381C146.819 82.4146 147.266 82.6822 147.719 82.9408L147.723 82.9385L146.407 68.8153Z" fill="#2EBAAB"/>
<path d="M167.709 87.4336L167.711 87.4371C168.231 87.3975 168.75 87.3472 169.266 87.2857C176.071 86.4731 182.431 83.6782 187.597 79.3769C187.999 79.0422 188.394 78.6985 188.781 78.3455L174.945 75.2337L167.709 87.4336Z" fill="#2EBAAB"/>
<path d="M199.569 59.1903C200.934 52.286 200.171 45.4312 197.718 39.3209C197.523 38.8356 197.318 38.3555 197.101 37.8801L189.867 50.0761L199.23 60.7234C199.281 60.5157 199.33 60.3059 199.377 60.0957C199.445 59.7933 199.508 59.4928 199.569 59.1903V59.1903Z" fill="#2EBAAB"/>
<path d="M173.118 16.7065C153.441 12.091 133.177 25.1737 129.274 45.016C125.582 61.9007 135.224 79.9962 151.329 86.2493C151.995 86.3991 152.692 86.0527 152.961 85.4004C153.262 84.6713 152.915 83.836 152.186 83.5348C151.128 83.0978 150.085 82.6015 149.076 82.0575L147.898 69.4129L156.395 62.032L168.824 64.8273L173.343 75.1356L166.85 86.0814C165.714 86.1362 164.57 86.1316 163.421 86.0614C162.633 86.0214 161.962 86.6277 161.922 87.4157C161.882 88.2037 162.489 88.875 163.276 88.9147C180.726 89.967 197.119 77.5325 200.772 60.4094C205.32 40.9722 192.623 20.9085 173.118 16.7065V16.7065ZM175.963 73.9985L171.445 63.6901L177.94 52.7402L189.282 51.5724L197.667 61.1077C196.104 67.1911 192.769 72.5769 188.326 76.7787L175.963 73.9983L175.963 73.9985ZM146.016 67.2631L133.664 64.4851C131.447 58.7505 130.745 52.4314 131.906 46.3283L143.582 41.2941L153.332 47.2056L154.513 59.882L146.016 67.2631ZM132.746 42.8548C134.325 37.3318 137.313 32.4776 141.224 28.5942L142.174 38.7899L132.746 42.8548ZM156.206 47.2579L167.325 42.4638L175.32 51.5567L169.143 61.9706L157.33 59.3138L156.206 47.2579ZM191.626 49.9122L196.85 41.105C198.722 46.2892 199.344 51.9555 198.406 57.6225L191.626 49.9122ZM195.47 37.8309L189.007 48.7287L177.665 49.8964L169.266 40.3443L171.787 29.1324L183.47 24.0956C188.65 27.4947 192.796 32.2965 195.47 37.8309V37.8309ZM180.398 22.3086L170.941 26.3861L164.14 18.652C166.903 18.5696 169.707 18.8371 172.491 19.4939C175.288 20.0921 177.936 21.0506 180.398 22.3086V22.3086ZM160.599 18.9519L169 28.5054L166.478 39.7174L154.798 44.7536L145.048 38.8422L143.873 26.226C148.659 22.3697 154.461 19.8056 160.599 18.9519ZM135.118 67.7405L145.081 69.9812L146.036 80.2345C141.378 77.0811 137.652 72.7158 135.118 67.7405V67.7405ZM170.391 85.712L175.644 76.855L185.608 79.096C181.184 82.4905 175.944 84.819 170.391 85.712Z" fill="#252729"/>
<path d="M157.069 88.0632C157.838 88.2363 158.603 87.7527 158.776 86.9829C158.949 86.2132 158.465 85.4489 157.695 85.2758C156.926 85.1027 156.161 85.5863 155.988 86.3561C155.815 87.1258 156.299 87.8901 157.069 88.0632Z" fill="#252729"/>
<path d="M130.053 61.4565L119.584 68.0812" stroke="#252729" stroke-width="3" stroke-linecap="round"/>
<path d="M133.713 70.1365L112.774 83.386" stroke="#252729" stroke-width="3" stroke-linecap="round"/>
<path d="M140.284 78.3488L134.395 82.0752" stroke="#252729" stroke-width="3" stroke-linecap="round"/>
<path d="M130.349 85.0937L128.386 86.3358" stroke="#252729" stroke-width="3" stroke-linecap="round"/>
</g>
<defs>
<linearGradient id="paint0_linear" x1="51.9388" y1="26.4376" x2="171.976" y2="147.993" gradientUnits="userSpaceOnUse">
<stop stop-color="#87C8C1"/>
<stop offset="1" stop-color="#3DCFBF"/>
</linearGradient>
</defs>
</svg>
