<svg width="148" height="147" viewBox="0 0 148 147" fill="none" xmlns="http://www.w3.org/2000/svg">
<g opacity="1">
<ellipse opacity="0.2" cx="74.124" cy="72.8628" rx="73.7407" ry="72.8628" fill="url(#paint0_linear)"/>
<g clip-path="url(#clip0)">
<path d="M74.4983 67.6862H46.8286V85.7876H74.4983V67.6862Z" fill="#2EBAAB"/>
<path d="M59.2809 17.2153H19.1602V34.3575H59.2809V17.2153Z" fill="#2EBAAB"/>
<path d="M86.949 17.2153H59.2793V34.3575H86.949V17.2153Z" fill="white"/>
<path d="M102.167 17.2153H86.9497V34.3575H102.167V17.2153Z" fill="#2EBAAB"/>
<path d="M47.6943 34.3592H19.1602V51.5014H47.6943V34.3592Z" fill="#2EBAAB"/>
<path d="M74.4983 34.3592H46.8286V51.5014H74.4983V34.3592Z" fill="#2EBAAB"/>
<path d="M102.168 34.3592H74.4985V51.5014H102.168V34.3592Z" fill="white"/>
<path d="M59.2809 51.5014H19.1602V68.6436H59.2809V51.5014Z" fill="white"/>
<path d="M86.949 51.5014H59.2793V68.6435H86.949V51.5014Z" fill="#2EBAAB"/>
<path d="M102.166 51.5014H86.9492V68.6435H102.166V51.5014Z" fill="#2EBAAB"/>
<path d="M34.3771 17.2153H19.1602V34.3575H34.3771V17.2153Z" fill="white"/>
<path d="M34.3771 51.5014H19.1602V68.6435H34.3771V51.5014Z" fill="#2EBAAB"/>
<path d="M46.8299 68.6435H19.1602V85.7857H46.8299V68.6435Z" fill="white"/>
<path d="M102.168 68.6435H74.4985V85.7857H102.168V68.6435Z" fill="white"/>
<path d="M102.167 15.4115H19.16C18.1636 15.4115 17.3555 16.2193 17.3555 17.2159V85.7867C17.3555 86.7833 18.1636 87.5913 19.16 87.5913H102.167C103.163 87.5913 103.972 86.7835 103.972 85.7867V17.2159C103.971 16.2193 103.163 15.4115 102.167 15.4115ZM48.6334 49.6968V47.1104C48.6334 46.1138 47.8253 45.3058 46.8289 45.3058C45.8325 45.3058 45.0243 46.1136 45.0243 47.1104V49.6968H20.9644V36.1631H72.6932V49.6968H48.6334ZM57.4754 66.8397H36.1824V53.3059H57.4755V66.8397H57.4754ZM20.9644 53.3059H32.5733V66.8397H20.9644V53.3059ZM76.3023 36.1631H100.362V49.6968H76.3023V36.1631ZM88.7534 53.3059H100.362V66.8397H88.7534V53.3059ZM100.362 32.5541H88.7534V19.0204H100.362V32.5541ZM85.1442 32.5541H61.0845V19.0204H85.1442V32.5541ZM57.4754 32.5541H36.1824V19.0204H57.4755V32.5541H57.4754ZM20.9644 19.0204H32.5733V32.5541H20.9644V19.0204ZM20.9644 70.4486H45.0243V83.9823H20.9644V70.4486ZM48.6334 70.4486H59.2799C60.2764 70.4486 61.0845 69.6408 61.0845 68.644V53.3058H85.1442V66.8395H71.9414C70.945 66.8395 70.1369 67.6473 70.1369 68.644C70.1369 69.6408 70.9452 70.4486 71.9416 70.4486H72.6934V83.9823H48.6334V70.4486ZM100.362 83.9823H76.3023V70.4486H100.362V83.9823Z" fill="#252729"/>
<path d="M65.9265 66.8397H65.746C64.7495 66.8397 63.9414 67.6475 63.9414 68.6442C63.9414 69.641 64.7497 70.4486 65.7461 70.4486H65.9266C66.9231 70.4486 67.7312 69.6408 67.7312 68.644C67.7312 67.6473 66.9231 66.8397 65.9265 66.8397Z" fill="#252729"/>
<path d="M46.829 39.0503C45.8325 39.0503 45.0244 39.8581 45.0244 40.8549V41.0354C45.0244 42.032 45.8325 42.8399 46.829 42.8399C47.8254 42.8399 48.6335 42.0321 48.6335 41.0354V40.8549C48.6335 39.8581 47.8254 39.0503 46.829 39.0503Z" fill="#252729"/>
</g>
<path d="M94.5046 117.28L89.7349 102.6L76.47 98.148L63.9873 107.217C64.1299 115.098 66.6555 122.396 70.8738 128.421H86.3065L94.5046 117.28Z" fill="white"/>
<path d="M89.7354 102.6L102.223 93.5274V79.4375L89.7354 70.3657L89.7385 70.3577C82.4924 72.8596 76.2345 77.4787 71.7026 83.4721L76.4705 98.1479L89.7354 102.6Z" fill="white"/>
<path d="M102.223 79.4376V93.5277L114.71 102.6L127.975 98.1482L132.743 83.4724C128.211 77.4789 121.953 72.8598 114.707 70.358L114.71 70.3659L102.223 79.4376Z" fill="white"/>
<path d="M114.71 102.6L109.94 117.28L118.139 128.421H133.571C137.79 122.396 140.315 115.098 140.458 107.217L127.975 98.148L114.71 102.6Z" fill="white"/>
<path d="M118.138 128.421L109.94 117.28H94.5047L86.3066 128.421L91.0761 143.102L91.073 143.105C94.6009 144.179 98.3427 144.757 102.222 144.757C106.102 144.757 109.844 144.179 113.372 143.105L113.369 143.102L118.138 128.421Z" fill="white"/>
<path d="M89.7349 102.6L94.5046 117.28H109.94L114.71 102.6L102.222 93.5276L89.7349 102.6Z" fill="#2EBAAB"/>
<path d="M102.222 79.4375L114.71 70.3656L114.706 70.3577C114.173 70.174 113.633 70.0014 113.088 69.8399C109.643 68.8201 105.997 68.2739 102.222 68.2739C98.447 68.2739 94.802 68.8201 91.3562 69.8399C90.8115 70.0014 90.2716 70.174 89.738 70.3577L89.7349 70.3656L102.222 79.4375Z" fill="#2EBAAB"/>
<path d="M71.7023 83.4721C71.3587 83.925 71.0261 84.3857 70.703 84.8546C66.6398 90.7562 64.1933 97.8518 63.9937 105.508C63.9858 105.844 63.981 106.178 63.981 106.515C63.981 106.75 63.9825 106.984 63.9873 107.217L76.47 98.1481L71.7023 83.4721Z" fill="#2EBAAB"/>
<path d="M86.3067 128.421H70.874C71.2002 128.888 71.5375 129.348 71.8843 129.799C76.3419 135.599 82.4272 140.085 89.4579 142.573C89.9915 142.761 90.5299 142.939 91.073 143.105L91.0761 143.102L86.3067 128.421Z" fill="#2EBAAB"/>
<path d="M113.369 143.102L113.372 143.105C113.915 142.939 114.454 142.761 114.987 142.573C122.018 140.085 128.103 135.599 132.561 129.799C132.908 129.348 133.245 128.888 133.571 128.421H118.139L113.369 143.102Z" fill="#2EBAAB"/>
<path d="M140.451 105.508C140.251 97.8519 137.805 90.7563 133.742 84.8547C133.419 84.386 133.086 83.9253 132.742 83.4723L127.975 98.148L140.457 107.217C140.462 106.984 140.464 106.75 140.464 106.515C140.463 106.178 140.459 105.844 140.451 105.508Z" fill="#2EBAAB"/>
<path d="M102.222 66.7194C80.2299 66.5175 61.8394 85.246 62.4334 107.245C62.5452 126.053 77.1036 142.962 95.6951 145.756C96.4378 145.756 97.0949 145.222 97.2253 144.465C97.3708 143.619 96.8031 142.815 95.957 142.669C94.7294 142.458 93.5032 142.18 92.302 141.843L88.0319 128.7L95.291 118.834H109.154L116.413 128.7L112.134 141.871C110.941 142.201 109.724 142.469 108.488 142.669C107.642 142.814 107.074 143.618 107.22 144.465C107.366 145.311 108.171 145.878 109.015 145.733C127.793 142.683 142.229 125.567 142.018 106.515C142.206 84.7929 123.934 66.5232 102.222 66.7194ZM118.924 126.867L111.665 117.001L115.946 103.825L127.709 99.8767L138.888 107.998C138.682 114.83 136.428 121.344 132.713 126.866H118.924V126.867ZM85.5206 126.867H71.7435C68.0202 121.308 65.7655 114.766 65.5409 108.01L76.7352 99.8767L88.4983 103.825L92.7794 117.001L85.5206 126.867ZM65.6036 104.121C65.9613 97.8803 67.9747 92.013 71.1995 86.9562L74.6426 97.5541L65.6036 104.121ZM91.5625 103.194L102.222 95.4491L112.882 103.194L108.811 115.725H95.6341L91.5625 103.194ZM129.802 97.5543L133.245 86.9563C136.47 92.0135 138.484 97.8807 138.841 104.121L129.802 97.5543ZM130.998 83.8097L126.738 96.9233L114.975 100.871L103.777 92.7354V80.2296L114.978 72.0924C121.289 74.4643 126.837 78.5725 130.998 83.8097ZM111.29 70.9286L102.222 77.516L93.155 70.9287C96.0694 70.1813 99.1096 69.7959 102.222 69.8284C105.335 69.7956 108.375 70.181 111.29 70.9286ZM89.4672 72.0926L100.668 80.2296V92.7354L89.4697 100.871L77.7068 96.9233L73.4463 83.8093C77.607 78.5723 83.1552 74.4645 89.4672 72.0926ZM74.0647 129.976H85.1772L88.6397 140.633C82.9408 138.398 77.9429 134.653 74.0647 129.976ZM115.805 140.633L119.267 129.976H130.381C126.494 134.636 121.488 138.359 115.805 140.633Z" fill="#252729"/>
<path d="M102.222 146.311C103.08 146.311 103.776 145.615 103.776 144.756C103.776 143.898 103.08 143.202 102.222 143.202C101.363 143.202 100.667 143.898 100.667 144.756C100.667 145.615 101.363 146.311 102.222 146.311Z" fill="#252729"/>
</g>
<defs>
<linearGradient id="paint0_linear" x1="8.40171" y1="25.6081" x2="128.439" y2="147.163" gradientUnits="userSpaceOnUse">
<stop stop-color="#87C8C1"/>
<stop offset="1" stop-color="#3DCFBF"/>
</linearGradient>
<clipPath id="clip0">
<rect width="86.6161" height="86.6161" fill="white" transform="translate(17.3555 8.19342)"/>
</clipPath>
</defs>
</svg>
