<svg width="148" height="146" viewBox="0 0 148 146" fill="none" xmlns="http://www.w3.org/2000/svg">
<g opacity="1">
<ellipse opacity="0.2" cx="74.1176" cy="72.8628" rx="73.7407" ry="72.8628" fill="url(#paint0_linear)"/>
<path d="M93.7716 65.5061L88.4203 49.0363L73.5379 44.0413L59.5332 54.2157C59.6931 63.0578 62.5267 71.2458 67.2594 78.0057H84.5739L93.7716 65.5061Z" fill="white"/>
<path d="M88.4206 49.0362L102.431 38.8573V23.0494L88.4206 12.8713L88.424 12.8624C80.2944 15.6693 73.2735 20.8517 68.189 27.5759L73.5382 44.0412L88.4206 49.0362Z" fill="white"/>
<path d="M102.43 23.0495V38.8576L116.44 49.0365L131.322 44.0415L136.672 27.5763C131.587 20.852 124.566 15.6696 116.437 12.8627L116.44 12.8716L102.43 23.0495Z" fill="white"/>
<path d="M116.44 49.0363L111.089 65.5061L120.287 78.0058H137.601C142.334 71.246 145.168 63.0577 145.327 54.2158L131.323 44.0414L116.44 49.0363Z" fill="white"/>
<path d="M120.287 78.0059L111.089 65.5061H93.7719L84.5742 78.0059L89.9252 94.4766L89.9217 94.4803C93.8799 95.6847 98.0779 96.3332 102.431 96.3332C106.783 96.3332 110.981 95.6847 114.939 94.4803L114.936 94.4766L120.287 78.0059Z" fill="white"/>
<path d="M88.4204 49.0363L93.7717 65.5061H111.089L116.44 49.0363L102.43 38.8575L88.4204 49.0363Z" fill="#2EBAAB"/>
<path d="M102.43 23.0494L116.44 12.8713L116.437 12.8624C115.838 12.6563 115.232 12.4627 114.621 12.2815C110.756 11.1374 106.666 10.5245 102.43 10.5245C98.1949 10.5245 94.1054 11.1374 90.2395 12.2815C89.6284 12.4627 89.0226 12.6563 88.4239 12.8624L88.4204 12.8713L102.43 23.0494Z" fill="#2EBAAB"/>
<path d="M68.1887 27.576C67.8032 28.084 67.43 28.601 67.0676 29.127C62.5089 35.7482 59.7641 43.709 59.5402 52.2987C59.5313 52.6755 59.5259 53.0503 59.5259 53.4287C59.5259 53.6917 59.5276 53.9546 59.533 54.2158L73.5378 44.0414L68.1887 27.576Z" fill="#2EBAAB"/>
<path d="M84.5737 78.0059H67.2593C67.6252 78.53 68.0036 79.0452 68.3928 79.5515C73.3939 86.0591 80.2212 91.0922 88.1091 93.883C88.7079 94.0944 89.3119 94.2934 89.9212 94.48L89.9247 94.4764L84.5737 78.0059Z" fill="#2EBAAB"/>
<path d="M114.936 94.4764L114.939 94.48C115.548 94.2934 116.152 94.0946 116.751 93.883C124.639 91.092 131.466 86.0589 136.468 79.5515C136.857 79.0452 137.235 78.53 137.601 78.0059H120.287L114.936 94.4764Z" fill="#2EBAAB"/>
<path d="M145.32 52.2989C145.096 43.7091 142.352 35.7483 137.793 29.1271C137.43 28.6013 137.057 28.0843 136.672 27.5761L131.323 44.0414L145.327 54.2158C145.333 53.9547 145.335 53.6917 145.335 53.4287C145.334 53.0502 145.329 52.6754 145.32 52.2989Z" fill="#2EBAAB"/>
<path d="M102.43 8.78047C77.7561 8.55392 57.1232 29.5662 57.7896 54.2472C57.915 75.3486 74.2486 94.3199 95.107 97.454C95.9403 97.454 96.6776 96.8548 96.8239 96.0056C96.9871 95.0564 96.3502 94.1544 95.4009 93.991C94.0236 93.7538 92.6479 93.4421 91.3002 93.0645L86.5095 78.3184L94.6537 67.2502H110.207L118.351 78.3184L113.55 93.0959C112.211 93.4655 110.847 93.7667 109.46 93.9908C108.511 94.1542 107.873 95.0563 108.037 96.0056C108.201 96.9549 109.104 97.5918 110.052 97.4284C131.119 94.007 147.315 74.8039 147.079 53.4289C147.289 29.0578 126.79 8.56037 102.43 8.78047ZM121.169 76.2618L113.024 65.1936L117.827 50.4104L131.025 45.9809L143.567 55.0926C143.336 62.7574 140.806 70.0662 136.639 76.2616H121.169V76.2618ZM83.6919 76.2618H68.2349C64.0577 70.025 61.5281 62.6861 61.276 55.1053L73.8353 45.9809L87.0327 50.4103L91.8358 65.1934L83.6919 76.2618ZM61.3463 50.7427C61.7476 43.7409 64.0066 37.1583 67.6246 31.4848L71.4876 43.375L61.3463 50.7427ZM90.4706 49.7025L102.43 41.0134L114.39 49.7025L109.822 63.762H95.0387L90.4706 49.7025ZM133.373 43.3752L137.236 31.485C140.854 37.1588 143.114 43.7415 143.514 50.743L133.373 43.3752ZM134.715 27.9546L129.935 42.6673L116.738 47.0967L104.174 37.9688V23.938L116.741 14.8087C123.822 17.4698 130.047 22.0789 134.715 27.9546ZM112.604 13.5029L102.43 20.8936L92.2572 13.5031C95.527 12.6645 98.9379 12.2322 102.43 12.2686C105.922 12.2318 109.333 12.6642 112.604 13.5029ZM88.1198 14.8089L100.686 23.938V37.9688L88.1225 47.0967L74.9253 42.6673L70.1453 27.9543C74.8133 22.0787 81.0381 17.47 88.1198 14.8089ZM70.8391 79.7499H83.3066L87.1914 91.7073C80.7976 89.1992 75.1902 84.9975 70.8391 79.7499ZM117.669 91.7073L121.554 79.7499H134.022C129.662 84.9787 124.045 89.1559 117.669 91.7073Z" fill="#252729"/>
<path d="M102.43 98.077C103.393 98.077 104.174 97.2961 104.174 96.3329C104.174 95.3697 103.393 94.5888 102.43 94.5888C101.467 94.5888 100.686 95.3697 100.686 96.3329C100.686 97.2961 101.467 98.077 102.43 98.077Z" fill="#252729"/>
<path d="M81.1929 76.3246L84.0924 73.4251L97.1411 86.4737L94.2415 89.3733L81.1929 76.3246Z" fill="#2EBAAB"/>
<path d="M39.147 51.6771L42.0465 48.7775L62.3447 69.0757L59.4451 71.9753L39.147 51.6771Z" fill="#2EBAAB"/>
<path d="M28.9976 58.9266L31.8977 56.0265L53.6457 77.7744L50.7455 80.6746L28.9976 58.9266Z" fill="#2EBAAB"/>
<path d="M24.6484 71.9747L27.548 69.0752L44.9466 86.4738L42.047 89.3733L24.6484 71.9747Z" fill="#2EBAAB"/>
<path d="M44.9464 89.3732L36.247 98.0725L17.3987 79.2242C14.9968 76.8223 14.9968 72.9274 17.3987 70.5255C19.8012 68.123 23.6961 68.123 26.098 70.5249L44.9464 89.3732Z" fill="#2EBAAB"/>
<path d="M21.6806 57.545L21.8169 57.4088C24.1817 55.044 28.0151 55.0434 30.3799 57.4082L53.6458 80.674L44.9465 89.3733L21.6806 66.1075C19.3158 63.7427 19.3158 59.9098 21.6806 57.545Z" fill="#2EBAAB"/>
<path d="M62.3448 71.9753L53.6461 80.674L24.6487 51.6765C22.2468 49.2746 22.2462 45.3803 24.6487 42.9778C27.0506 40.5759 30.9455 40.5759 33.3474 42.9778L62.3448 71.9753Z" fill="#2EBAAB"/>
<path d="M71.0442 63.276L62.3449 71.9753L40.5969 50.2274C38.195 47.8255 38.195 43.9306 40.5975 41.5281C42.9994 39.1262 46.8943 39.1262 49.2962 41.5281L71.0442 63.276Z" fill="#2EBAAB"/>
<path d="M26.0977 76.3252L28.9978 73.425L44.946 89.3732L42.0459 92.2734L26.0977 76.3252Z" fill="white"/>
<path d="M30.4463 63.276L33.3465 60.3759L53.6446 80.674L50.7445 83.5742L30.4463 63.276Z" fill="white"/>
<path d="M49.2949 47.3272L52.1945 44.4276L71.0429 63.276L68.1433 66.1756L49.2949 47.3272Z" fill="white"/>
<path d="M33.3472 48.7775L36.2467 45.8779L62.344 71.9752L59.4445 74.8748L33.3472 48.7775Z" fill="white"/>
<path d="M17.33 70.5935L17.4663 70.4572C19.8311 68.0924 23.6652 68.0924 26.0293 70.4566L30.4474 74.8747L21.7481 83.574L17.33 79.1559C14.9659 76.7917 14.9659 72.9577 17.33 70.5935Z" fill="white"/>
<path d="M21.6801 57.545L21.8164 57.4087C24.1812 55.0439 28.0146 55.0433 30.3794 57.4081L34.7969 61.8256L26.0976 70.5249L21.6801 66.1074C19.3153 63.7426 19.3153 59.9098 21.6801 57.545Z" fill="white"/>
<path d="M24.6477 42.9779C27.0496 40.576 30.9445 40.576 33.3464 42.9779L37.6963 47.3278L28.9976 56.0265L24.6477 51.6766C22.2458 49.2747 22.2452 45.3804 24.6477 42.9779Z" fill="white"/>
<path d="M40.5279 41.5961L40.6642 41.4599C43.0284 39.0957 46.8618 39.0951 49.2266 41.4599L53.6447 45.878L44.9454 54.5773L40.5273 50.1592C38.1625 47.7944 38.1631 43.9609 40.5279 41.5961Z" fill="white"/>
<path d="M69.5933 128.52L102.94 95.173L114.539 106.772L81.1921 140.119L69.5933 128.52Z" fill="white"/>
<path d="M96.991 63.5357C97.1748 59.5763 94.1146 56.218 90.1552 56.0331C89.7233 56.0136 89.2907 56.0325 88.8618 56.0903C85.3319 56.6816 82.7207 59.698 82.6416 63.2753V74.8748L69.593 61.8261L34.7964 96.6227L55.908 117.734L57.0067 118.709L69.7293 128.384L102.94 95.173L97.1401 89.3732L96.991 63.5357Z" fill="#2EBAAB"/>
<path d="M114.538 106.772L95.69 125.62C92.4874 128.823 87.2943 128.823 84.0911 125.62C80.8886 122.417 80.8886 117.224 84.0911 114.021L102.94 95.173L114.538 106.772Z" fill="#2EBAAB"/>
<path d="M43.4951 96.6228L46.3953 93.7227L49.2955 96.6228L46.3953 99.523L43.4951 96.6228Z" fill="white"/>
<path d="M49.2949 90.8232L52.1945 87.9236L55.0947 90.8238L52.1951 93.7234L49.2949 90.8232Z" fill="white"/>
<path d="M55.0942 85.0241L57.9944 82.1239L60.8946 85.0241L57.9944 87.9242L55.0942 85.0241Z" fill="white"/>
<path d="M78.292 108.222L81.1922 105.321L84.0923 108.222L81.1922 111.122L78.292 108.222Z" fill="white"/>
<path d="M84.0918 102.422L86.9914 99.5223L89.8915 102.422L86.992 105.322L84.0918 102.422Z" fill="white"/>
<path d="M89.8906 96.6227L92.7908 93.7226L95.691 96.6228L92.7908 99.5229L89.8906 96.6227Z" fill="white"/>
<path d="M55.0947 99.5223L73.9425 80.6745L85.5414 92.2734L66.6936 111.121L55.0947 99.5223Z" fill="white"/>
<path d="M88.8619 56.0903C85.3321 56.6817 82.7209 59.698 82.6424 63.276L82.6418 74.8748L97.1402 81.595L96.9912 63.5357C97.1749 59.5764 94.1153 56.2175 90.156 56.0337C89.7234 56.0137 89.2909 56.0325 88.8619 56.0903Z" fill="#2EBAAB"/>
<path d="M88.8619 56.0903C85.332 56.6817 82.7208 59.698 82.6424 63.2759L82.6375 69.2454L97.0288 70.0917L96.9911 63.5357C97.1748 59.5764 94.1153 56.2175 90.1553 56.0331C89.7233 56.0137 89.2908 56.0325 88.8619 56.0903Z" fill="white"/>
<path d="M97.1101 84.0826L82.6421 74.8747L97.1405 89.3731L97.1101 84.0826Z" fill="white"/>
<path d="M88.6052 54.0558C84.0588 54.8011 80.6877 58.6784 80.5831 63.2851L80.5873 69.9207L50.7448 40.0782C47.5417 36.875 42.3491 36.8757 39.1466 40.0782C38.1312 41.1058 37.4084 42.3846 37.0525 43.7845L34.796 41.528C31.5935 38.3254 26.4009 38.3248 23.1977 41.528C19.9946 44.7311 19.9946 49.9243 23.1971 53.1268L23.999 53.9287C22.5741 54.3071 21.2746 55.0542 20.2294 56.0945C17.294 59.0495 17.0822 63.7499 19.7397 66.9573C18.3069 67.3059 16.9965 68.0384 15.9482 69.0757C12.7457 72.2782 12.7457 77.4714 15.9482 80.6739L54.5454 119.271L67.8417 129.523C67.9214 129.684 68.0224 129.835 68.1434 129.97L79.7423 141.568C80.5429 142.369 81.8412 142.369 82.6419 141.568L115.989 108.222C116.789 107.421 116.789 106.123 115.989 105.322L99.1863 88.5197L99.0397 63.63C99.2733 58.539 95.3364 54.2225 90.2467 53.9889C89.6967 53.9634 89.1461 53.9871 88.601 54.0601L88.6052 54.0558ZM69.5439 125.669L58.3667 117.174L37.6962 96.6227L69.5932 64.7257L100.04 95.173L69.5439 125.669ZM66.6936 61.8261L60.8939 67.6259L47.8452 54.5772L53.645 48.7775L66.6936 61.8261ZM39.1459 51.6771L57.9943 70.5254L52.1952 76.3246L31.897 56.0264L37.6962 50.2273L39.1459 51.6771ZM49.295 79.2247L43.4959 85.0239L28.9975 70.5254L34.7966 64.7263L49.295 79.2247ZM40.5963 87.9234L34.7966 93.7232L24.6475 83.5741L30.4473 77.7744L40.5963 87.9234ZM42.0461 42.9778C43.6474 41.3765 46.244 41.3765 47.8452 42.9778L50.7448 45.8773L44.9451 51.6771L42.0455 48.7775C40.4442 47.1762 40.4442 44.5796 42.0461 42.9778ZM26.0973 44.4275C27.6986 42.8263 30.2952 42.8263 31.897 44.4282L34.7966 47.3277L28.9975 53.1268L26.0973 50.2267C24.496 48.6254 24.496 46.0288 26.0973 44.4275ZM23.2659 58.8584C24.8306 57.2961 27.3646 57.2967 28.9287 58.8584L31.8964 61.8261L26.0973 67.6253L23.1296 64.6576C21.5648 63.0563 21.594 60.4901 23.1953 58.9254C23.219 58.9029 23.2421 58.8797 23.2659 58.8584ZM18.8478 71.9752C20.4497 70.3733 23.0462 70.3734 24.6475 71.9746L27.5477 74.8748L21.748 80.6745L18.8478 77.7744C17.2465 76.1731 17.2465 73.5765 18.8478 71.9752ZM72.4928 128.52L79.78 121.233C80.358 125.776 83.9359 129.354 88.4793 129.932L81.1921 137.219L72.4928 128.52ZM111.639 106.772L94.2407 124.17C91.8388 126.572 87.9439 126.572 85.5414 124.17C83.1395 121.768 83.1395 117.873 85.5414 115.471L102.94 98.0725L111.639 106.772ZM84.6921 74.0255V71.4155L94.9933 72.0203L95.0614 84.3948L84.6921 74.0255ZM94.941 63.5467L94.9629 67.9185L84.6903 67.3168L84.686 63.3836C84.7183 60.7962 86.5787 58.5938 89.1242 58.1302C90.6415 57.9173 92.174 58.3961 93.2995 59.4352C94.4342 60.492 95.0359 62.0001 94.941 63.5467Z" fill="#252729"/>
<path d="M43.4951 96.6228L46.3953 93.7227L49.2955 96.6228L46.3953 99.523L43.4951 96.6228Z" fill="#252729"/>
<path d="M49.2949 90.8232L52.1945 87.9236L55.0947 90.8238L52.1951 93.7234L49.2949 90.8232Z" fill="#252729"/>
<path d="M55.0942 85.0241L57.9944 82.1239L60.8946 85.0241L57.9944 87.9242L55.0942 85.0241Z" fill="#252729"/>
<path d="M78.292 108.222L81.1922 105.321L84.0923 108.222L81.1922 111.122L78.292 108.222Z" fill="#252729"/>
<path d="M84.0918 102.422L86.9914 99.5223L89.8915 102.422L86.992 105.322L84.0918 102.422Z" fill="#252729"/>
<path d="M89.8906 96.6227L92.7908 93.7226L95.691 96.6228L92.7908 99.5229L89.8906 96.6227Z" fill="#252729"/>
<path d="M86.9919 90.823L75.3931 79.2241C74.5924 78.4235 73.2941 78.4235 72.4929 79.2247L53.6451 98.0725C52.8445 98.8731 52.8445 100.171 53.6451 100.972L65.244 112.571C66.0446 113.372 67.3429 113.372 68.1435 112.571L86.9913 93.7231C87.7926 92.9219 87.7926 91.6236 86.9919 90.823ZM82.642 92.2734L66.6937 108.222L57.9944 99.5223L73.9427 83.5741L82.642 92.2734Z" fill="#252729"/>
</g>
<defs>
<linearGradient id="paint0_linear" x1="8.39536" y1="25.6081" x2="128.433" y2="147.163" gradientUnits="userSpaceOnUse">
<stop stop-color="#87C8C1"/>
<stop offset="1" stop-color="#3DCFBF"/>
</linearGradient>
</defs>
</svg>
