<svg width="36" height="36" viewBox="0 0 36 36" fill="#FFF" xmlns="http://www.w3.org/2000/svg">
<path d="M14.6451 0.451141H14.6497V0.453192C18.6925 0.454364 22.3531 2.09413 25.0022 4.74376C27.6468 7.38958 29.2851 11.047 29.2878 15.0865H29.2898V15.0962V15.1079H29.2878C29.2863 16.736 29.0191 18.3028 28.5278 19.7638C28.4455 20.009 28.3593 20.2446 28.2709 20.4696V20.4716C27.8472 21.5439 27.2997 22.5576 26.6457 23.4913L35.1659 31.1493L35.1712 31.154L35.2172 31.1967L35.2204 31.2C35.7015 31.6579 35.9634 32.2711 35.9965 32.8933C36.0287 33.5086 35.8374 34.1379 35.4167 34.6427L35.4135 34.6474L35.3622 34.7068L35.352 34.7171L35.3092 34.764L35.3045 34.7701C34.846 35.2512 34.234 35.5125 33.6111 35.5453C32.9968 35.5778 32.3669 35.3871 31.8618 34.9658L31.8574 34.9626L31.7977 34.9113L31.7892 34.9043L23.0747 27.072C22.8169 27.2536 22.5538 27.4262 22.2875 27.5891C21.9263 27.8103 21.5521 28.0186 21.1704 28.2087C19.2078 29.1878 16.99 29.7386 14.6453 29.7386V29.7407H14.6407V29.7386C10.5979 29.7374 6.93668 28.0977 4.28764 25.448C1.6421 22.8022 0.00468754 19.1442 0.0020508 15.1059H0V15.0962V15.0915H0.0020508C0.00322269 11.0488 1.64298 7.38753 4.29262 4.73848C6.93844 2.09412 10.5959 0.455829 14.6354 0.453192V0.451141H14.6451ZM14.6497 3.73535V3.7374H14.6451H14.6354V3.73535C11.5047 3.7374 8.66697 5.00978 6.61266 7.06321C4.55863 9.11665 3.28509 11.9573 3.28421 15.0918H3.28626V15.0965V15.1062H3.28421C3.28626 18.2368 4.55776 21.0731 6.61207 23.128C8.66551 25.1823 11.5062 26.4559 14.6404 26.4565V26.4544H14.6451H14.6547V26.4565C17.7854 26.4544 20.622 25.1826 22.6769 23.1286C24.7309 21.0752 26.0044 18.2354 26.005 15.1012H26.0033V15.0965V15.0868H26.005C26.0033 11.9561 24.7306 9.11841 22.6775 7.06409C20.624 5.00978 17.7842 3.73623 14.6497 3.73535Z" fill="#FFF"/>
</svg>
