<svg width="40" height="40" viewBox="0 0 40 40" fill="#FFF" xmlns="http://www.w3.org/2000/svg">
<path d="M22.1794 3.91276C25.7829 4.39453 29.0088 6.06445 31.4567 8.51237C33.9111 10.9668 35.581 14.2057 36.0596 17.819H34.0576C33.5954 14.7526 32.1501 12.0052 30.0537 9.91211C27.9671 7.82227 25.2327 6.38021 22.1761 5.91146V3.91276H22.1794ZM17.4463 22.9264C18.2829 25.3874 21.7757 25.4785 22.5602 22.9264C23.4847 23.7565 26.2223 23.9258 27.2379 24.4922C27.5602 24.6712 27.8499 24.8991 28.0876 25.2083C28.5758 25.8529 29.5719 27.666 27.9541 27.7897H12.0524C10.4346 27.666 11.4307 25.8496 11.9189 25.2083C12.1533 24.8991 12.443 24.6712 12.7653 24.4922C13.7842 23.9258 16.5185 23.7565 17.4463 22.9264ZM16.805 17.8255C16.6292 17.832 16.4958 17.8711 16.4046 17.9297C16.3525 17.9622 16.3135 18.0078 16.2907 18.0599C16.2646 18.1185 16.2516 18.1901 16.2516 18.2715C16.2581 18.5124 16.3851 18.8249 16.6292 19.1895L16.6325 19.196L17.4235 20.4525C17.7392 20.957 18.0713 21.4714 18.4847 21.849C18.8818 22.2103 19.3636 22.4577 20.0016 22.4609C20.6917 22.4609 21.1995 22.207 21.6064 21.8229C22.0329 21.4225 22.3682 20.8757 22.7002 20.3288L23.5921 18.8639C23.7581 18.4863 23.82 18.2292 23.7809 18.0827C23.7581 17.9948 23.6605 17.9525 23.4945 17.9427C23.4587 17.9427 23.4228 17.9427 23.387 17.9427C23.3447 17.9427 23.3057 17.946 23.2633 17.9492C23.2406 17.9525 23.2178 17.9492 23.195 17.9427C23.1169 17.946 23.0355 17.9427 22.9508 17.9297L23.2568 16.582C20.9945 16.9401 19.2985 15.2572 16.9059 16.2467L17.0784 17.8385C16.9808 17.8418 16.8864 17.8418 16.805 17.8255ZM23.7972 17.5456C24.0153 17.6139 24.1585 17.7507 24.2139 17.9753C24.279 18.2259 24.2073 18.5775 23.9958 19.056C23.9925 19.0658 23.986 19.0755 23.9827 19.082L23.081 20.5664C22.7327 21.1393 22.3812 21.7122 21.9092 22.1517C21.4241 22.6074 20.8219 22.9102 19.9984 22.9102C19.2301 22.9102 18.654 22.6139 18.182 22.1842C17.723 21.7643 17.3747 21.224 17.0426 20.6966L16.2516 19.4401C15.9619 19.0072 15.8122 18.6133 15.8024 18.291C15.7959 18.138 15.8252 18.0013 15.8805 17.8809C15.9391 17.7539 16.0303 17.6465 16.154 17.5651C16.2093 17.526 16.2744 17.4935 16.346 17.4674C16.2939 16.7839 16.2744 15.9277 16.307 15.2083C16.3232 15.0391 16.3558 14.8665 16.4046 14.6973C16.6064 13.9746 17.1142 13.3919 17.7425 12.9948C18.0876 12.7734 18.4652 12.6074 18.8623 12.4967C19.1129 12.4251 18.6475 11.6243 18.9079 11.5951C20.1644 11.4648 22.1956 12.6107 23.0713 13.5612C23.5107 14.0365 23.7874 14.6647 23.846 15.498L23.7972 17.5456ZM20.9912 39.0104C20.9912 39.5573 20.5485 40 20.0016 40C19.4547 40 19.012 39.5573 19.012 39.0104V31.3509C19.012 30.804 19.4547 30.3613 20.0016 30.3613C20.5485 30.3613 20.9912 30.804 20.9912 31.3509V39.0104ZM31.3525 20.9896C30.8057 20.9896 30.3629 20.5469 30.3629 20C30.3629 19.4531 30.8057 19.0104 31.3525 19.0104H39.0088C39.5557 19.0104 39.9984 19.4531 39.9984 20C39.9984 20.5469 39.5557 20.9896 39.0088 20.9896H31.3525ZM20.9912 8.64909C20.9912 9.19596 20.5485 9.63867 20.0016 9.63867C19.4547 9.63867 19.012 9.19596 19.012 8.64909V0.989583C19.012 0.442708 19.4547 0 20.0016 0C20.5485 0 20.9912 0.442708 20.9912 0.989583V8.64909ZM0.991201 20.9896C0.444326 20.9896 0.00161743 20.5469 0.00161743 20C0.00161743 19.4531 0.444326 19.0104 0.991201 19.0104H8.64745C9.19433 19.0104 9.63704 19.4531 9.63704 20C9.63704 20.5469 9.19433 20.9896 8.64745 20.9896H0.991201ZM36.0531 22.1777C35.5648 25.7682 33.8981 28.9844 31.4567 31.4258C29.0088 33.8737 25.7829 35.5404 22.1794 36.0254V34.0267C25.2327 33.5579 27.9671 32.1159 30.057 30.026C32.1403 27.9427 33.5791 25.2214 34.0511 22.1777H36.0531ZM17.8239 36.0254C14.2204 35.5404 10.9945 33.8737 8.54654 31.4258C6.10513 28.9844 4.44172 25.7682 3.95019 22.1777H5.95214C6.42414 25.2214 7.8662 27.9427 9.94628 30.026C12.0329 32.1126 14.7672 33.5547 17.8239 34.0267V36.0254ZM3.94042 17.8223C4.41894 14.209 6.08886 10.9701 8.54329 8.51562C10.9912 6.06771 14.2171 4.39779 17.8206 3.91602V5.91797C14.7672 6.38672 12.0329 7.82878 9.94303 9.91862C7.84667 12.0117 6.40136 14.7591 5.93912 17.8255H3.94042V17.8223Z" fill="#FFF"/>
</svg>
