<svg width="247" height="163" viewBox="0 0 247 163" fill="none" xmlns="http://www.w3.org/2000/svg">
<g filter="url(#filter0_d)">
<rect x="70" y="19" width="174.6" height="90.6" rx="19.2" fill="white" fill-opacity="0.2"/>
<path fill-rule="evenodd" clip-rule="evenodd" d="M132.614 36.9722L114.277 32.0858L95.5861 36.9722C95.5861 36.9722 84.0213 63.1191 114.09 81.7536H114.11C144.179 63.1191 132.614 36.9722 132.614 36.9722Z" fill="#F7F7F7"/>
<path d="M132.614 36.9723L114.277 32.0163L95.5861 36.9723C95.5861 36.9723 84.0213 63.1192 114.09 81.7537H114.11C144.179 63.1192 132.614 36.9723 132.614 36.9723Z" stroke="#252729" stroke-width="0.9" stroke-miterlimit="2.613" stroke-linecap="round" stroke-linejoin="round"/>
<path fill-rule="evenodd" clip-rule="evenodd" d="M97.1148 56.465C98.7474 63.1372 102.603 69.1005 108.621 74.2916V56.465H97.1148ZM119.74 56.465V74.2047C125.629 69.0959 129.43 63.2408 131.085 56.7017V56.465H119.74Z" fill="#2EBAAB" stroke="#252729" stroke-width="0.9" stroke-miterlimit="2.613" stroke-linecap="round" stroke-linejoin="round"/>
<path d="M112.627 58.8473L111.717 56.0454L109.185 55.1957L106.803 56.9265C106.83 58.4308 107.312 59.8237 108.117 60.9737H111.063L112.627 58.8473Z" fill="#F7F7F7"/>
<path d="M111.717 56.0454L114.101 54.3137V51.6245L111.717 49.893L111.718 49.8915C110.335 50.369 109.14 51.2506 108.275 52.3945L109.185 55.1956L111.717 56.0454Z" fill="#F7F7F7"/>
<path d="M114.1 51.6245V54.3137L116.484 56.0454L119.016 55.1956L119.926 52.3945C119.061 51.2506 117.866 50.369 116.483 49.8915L116.484 49.893L114.1 51.6245Z" fill="#F7F7F7"/>
<path d="M116.484 56.0454L115.573 58.8472L117.138 60.9737H120.084C120.889 59.8237 121.371 58.4307 121.398 56.9265L119.016 55.1957L116.484 56.0454Z" fill="#F7F7F7"/>
<path d="M117.138 60.9737L115.573 58.8472H112.627L111.063 60.9737L111.973 63.7757L111.972 63.7763C112.646 63.9812 113.36 64.0915 114.1 64.0915C114.841 64.0915 115.555 63.9812 116.228 63.7763L116.228 63.7757L117.138 60.9737Z" fill="#F7F7F7"/>
<path d="M111.717 56.0453L112.627 58.8472H115.573L116.484 56.0453L114.1 54.3137L111.717 56.0453Z" fill="#2EBAAB"/>
<path d="M114.1 51.6245L116.484 49.893L116.483 49.8915C116.381 49.8564 116.278 49.8235 116.174 49.7927C115.517 49.598 114.821 49.4938 114.1 49.4938C113.38 49.4938 112.684 49.598 112.027 49.7927C111.923 49.8235 111.82 49.8564 111.718 49.8915L111.717 49.893L114.1 51.6245Z" fill="#2EBAAB"/>
<path d="M108.275 52.3945C108.21 52.481 108.146 52.5689 108.085 52.6584C107.309 53.7848 106.842 55.1391 106.804 56.6004C106.802 56.6645 106.802 56.7282 106.802 56.7926C106.802 56.8373 106.802 56.8821 106.803 56.9265L109.185 55.1956L108.275 52.3945Z" fill="#2EBAAB"/>
<path d="M111.063 60.9738H108.117C108.179 61.0629 108.244 61.1506 108.31 61.2367C109.161 62.3438 110.322 63.2 111.664 63.6748C111.766 63.7107 111.869 63.7446 111.972 63.7763L111.973 63.7757L111.063 60.9738Z" fill="#2EBAAB"/>
<path d="M116.228 63.7757L116.228 63.7763C116.332 63.7446 116.435 63.7108 116.537 63.6748C117.879 63.2 119.04 62.3437 119.891 61.2367C119.957 61.1506 120.021 61.0629 120.084 60.9738H117.138L116.228 63.7757Z" fill="#2EBAAB"/>
<path d="M121.397 56.6004C121.359 55.1391 120.892 53.7848 120.116 52.6584C120.055 52.5689 119.991 52.481 119.926 52.3945L119.016 55.1956L121.398 56.9265C121.399 56.8821 121.399 56.8373 121.399 56.7926C121.399 56.7282 121.398 56.6644 121.397 56.6004Z" fill="#2EBAAB"/>
<path d="M114.1 49.1971C109.903 49.1585 106.393 52.7331 106.506 56.9319C106.527 60.5217 109.306 63.7491 112.855 64.2822C112.996 64.2822 113.122 64.1803 113.147 64.0358C113.174 63.8744 113.066 63.7209 112.905 63.6931C112.67 63.6528 112.436 63.5997 112.207 63.5355L111.392 61.0269L112.777 59.144H115.423L116.809 61.0269L115.992 63.5408C115.764 63.6037 115.532 63.6549 115.296 63.6931C115.135 63.7209 115.026 63.8743 115.054 64.0358C115.082 64.1973 115.236 64.3057 115.397 64.2779C118.981 63.6958 121.736 60.429 121.696 56.7927C121.732 52.6467 118.244 49.1596 114.1 49.1971ZM117.288 60.677L115.903 58.7941L116.72 56.2792L118.965 55.5256L121.099 57.0757C121.059 58.3797 120.629 59.623 119.92 60.677H117.288V60.677ZM110.913 60.677H108.283C107.572 59.616 107.142 58.3675 107.099 57.0779L109.236 55.5256L111.481 56.2792L112.298 58.7941L110.913 60.677ZM107.111 56.3357C107.179 55.1446 107.564 54.0247 108.179 53.0595L108.836 55.0823L107.111 56.3357ZM112.066 56.1587L114.1 54.6806L116.135 56.1587L115.358 58.5506H112.843L112.066 56.1587ZM119.364 55.0823L120.022 53.0596C120.637 54.0248 121.021 55.1447 121.09 56.3358L119.364 55.0823ZM119.593 52.459L118.78 54.9619L116.534 55.7154L114.397 54.1626V51.7757L116.535 50.2226C117.74 50.6753 118.799 51.4594 119.593 52.459ZM115.831 50.0005L114.1 51.2578L112.37 50.0005C112.926 49.8578 113.506 49.7843 114.1 49.7905C114.694 49.7842 115.275 49.8578 115.831 50.0005ZM111.666 50.2226L113.804 51.7757V54.1626L111.666 55.7154L109.421 54.9619L108.608 52.4589C109.402 51.4594 110.461 50.6753 111.666 50.2226ZM108.726 61.2704H110.847L111.508 63.3046C110.42 62.8779 109.466 62.1631 108.726 61.2704ZM116.693 63.3046L117.354 61.2704H119.475C118.733 62.1599 117.777 62.8706 116.693 63.3046Z" fill="#252729"/>
<path d="M114.1 64.3883C114.264 64.3883 114.397 64.2555 114.397 64.0916C114.397 63.9278 114.264 63.7949 114.1 63.7949C113.937 63.7949 113.804 63.9278 113.804 64.0916C113.804 64.2555 113.937 64.3883 114.1 64.3883Z" fill="#252729"/>
<path d="M96.7415 38.2902L114.3 33.6853L131.581 38.5382L132.183 40.741C132.66 42.6018 133.228 45.5554 133.228 49.06C133.228 50.2074 133.167 51.3587 133.048 52.4825C131.919 63.1313 125.771 72.2063 114.773 79.4557L114.1 79.8999L113.427 79.4557C102.429 72.206 96.2808 63.1313 95.152 52.4825C95.0325 51.3577 94.9722 50.2066 94.9722 49.0605C94.9722 46.286 95.3334 43.408 96.0173 40.7386L96.7415 38.2902Z" stroke="#252729" stroke-width="0.9" stroke-miterlimit="2.613" stroke-linecap="round" stroke-linejoin="round"/>
<rect x="111.524" y="66.1689" width="5.15278" height="9.42837" rx="2.57639" fill="#2EBAAB"/>
<rect x="113.069" y="70.2094" width="2.06111" height="3.87237" rx="1.03056" fill="white"/>
<rect x="113.069" y="67.6843" width="2.06111" height="1.51527" rx="0.757637" fill="white"/>
<path d="M101.032 46.6157C100.976 46.6157 100.928 46.5961 100.889 46.5569C100.85 46.5177 100.83 46.4701 100.83 46.4141V41.7689H99.276C99.22 41.7689 99.1724 41.7493 99.1332 41.7101C99.094 41.6709 99.0744 41.6233 99.0744 41.5673V40.9457C99.0744 40.8841 99.0912 40.8337 99.1248 40.7945C99.164 40.7553 99.2144 40.7357 99.276 40.7357H103.56C103.622 40.7357 103.672 40.7553 103.711 40.7945C103.75 40.8337 103.77 40.8841 103.77 40.9457V41.5673C103.77 41.6233 103.75 41.6709 103.711 41.7101C103.672 41.7493 103.622 41.7689 103.56 41.7689H102.014V46.4141C102.014 46.4701 101.995 46.5177 101.956 46.5569C101.916 46.5961 101.866 46.6157 101.804 46.6157H101.032ZM104.824 46.6157C104.768 46.6157 104.72 46.5961 104.681 46.5569C104.642 46.5177 104.622 46.4701 104.622 46.4141V40.9457C104.622 40.8841 104.639 40.8337 104.673 40.7945C104.712 40.7553 104.762 40.7357 104.824 40.7357H108.52C108.581 40.7357 108.632 40.7553 108.671 40.7945C108.71 40.8337 108.73 40.8841 108.73 40.9457V41.5001C108.73 41.5617 108.71 41.6121 108.671 41.6513C108.632 41.6849 108.581 41.7017 108.52 41.7017H105.756V43.1885H108.335C108.397 43.1885 108.447 43.2081 108.486 43.2473C108.525 43.2809 108.545 43.3285 108.545 43.3901V43.9109C108.545 43.9725 108.525 44.0229 108.486 44.0621C108.447 44.0957 108.397 44.1125 108.335 44.1125H105.756V45.6497H108.587C108.649 45.6497 108.699 45.6693 108.738 45.7085C108.777 45.7477 108.797 45.7981 108.797 45.8597V46.4141C108.797 46.4757 108.777 46.5261 108.738 46.5653C108.699 46.5989 108.649 46.6157 108.587 46.6157H104.824ZM109.486 46.6157C109.442 46.6157 109.4 46.5989 109.36 46.5653C109.327 46.5317 109.31 46.4897 109.31 46.4393L109.327 46.3637L111.351 40.9457C111.39 40.8057 111.488 40.7357 111.645 40.7357H112.561C112.706 40.7357 112.804 40.8057 112.855 40.9457L114.879 46.3637C114.885 46.3805 114.888 46.4057 114.888 46.4393C114.888 46.4897 114.871 46.5317 114.837 46.5653C114.804 46.5989 114.764 46.6157 114.72 46.6157H113.989C113.916 46.6157 113.86 46.5989 113.821 46.5653C113.782 46.5317 113.756 46.4953 113.745 46.4561L113.35 45.4313H110.856L110.461 46.4561C110.416 46.5625 110.335 46.6157 110.217 46.6157H109.486ZM113.056 44.4653L112.099 41.8697L111.15 44.4653H113.056ZM115.882 46.6157C115.82 46.6157 115.77 46.5989 115.731 46.5653C115.692 46.5261 115.672 46.4757 115.672 46.4141V40.9457C115.672 40.8841 115.692 40.8337 115.731 40.7945C115.77 40.7553 115.82 40.7357 115.882 40.7357H116.546C116.663 40.7357 116.747 40.7889 116.798 40.8953L118.419 43.9193L120.057 40.8953C120.113 40.7889 120.197 40.7357 120.309 40.7357H120.964C121.026 40.7357 121.076 40.7553 121.115 40.7945C121.154 40.8337 121.174 40.8841 121.174 40.9457V46.4141C121.174 46.4757 121.154 46.5261 121.115 46.5653C121.076 46.5989 121.026 46.6157 120.964 46.6157H120.258C120.202 46.6157 120.155 46.5961 120.116 46.5569C120.076 46.5177 120.057 46.4701 120.057 46.4141V42.7769L118.881 45.0197C118.808 45.1429 118.713 45.2045 118.595 45.2045H118.251C118.133 45.2045 118.038 45.1429 117.965 45.0197L116.789 42.7769V46.4141C116.789 46.4701 116.77 46.5177 116.73 46.5569C116.697 46.5961 116.649 46.6157 116.588 46.6157H115.882ZM123.817 46.6157C123.773 46.6157 123.731 46.5989 123.691 46.5653C123.658 46.5317 123.641 46.4897 123.641 46.4393L123.658 46.3637L125.682 40.9457C125.721 40.8057 125.819 40.7357 125.976 40.7357H126.892C127.037 40.7357 127.135 40.8057 127.186 40.9457L129.21 46.3637C129.216 46.3805 129.219 46.4057 129.219 46.4393C129.219 46.4897 129.202 46.5317 129.168 46.5653C129.135 46.5989 129.095 46.6157 129.051 46.6157H128.32C128.247 46.6157 128.191 46.5989 128.152 46.5653C128.113 46.5317 128.087 46.4953 128.076 46.4561L127.681 45.4313H125.187L124.792 46.4561C124.747 46.5625 124.666 46.6157 124.548 46.6157H123.817ZM127.387 44.4653L126.43 41.8697L125.481 44.4653H127.387Z" fill="#252729"/>
<path fill-rule="evenodd" clip-rule="evenodd" d="M219.014 35.9559L200.677 31.0695L181.986 35.9559C181.986 35.9559 170.421 62.1028 200.49 80.7373H200.51C230.579 62.1028 219.014 35.9559 219.014 35.9559Z" fill="#2EBAAB"/>
<path d="M219.014 35.956L200.677 31L181.986 35.956C181.986 35.956 170.421 62.1029 200.49 80.7374H200.51C230.579 62.1029 219.014 35.956 219.014 35.956Z" stroke="#252729" stroke-width="0.9" stroke-miterlimit="2.613" stroke-linecap="round" stroke-linejoin="round"/>
<path fill-rule="evenodd" clip-rule="evenodd" d="M183.515 55.4487C185.147 62.1209 189.003 68.0842 195.021 73.2754V55.4487H183.515ZM206.14 55.4487V73.1884C212.029 68.0796 215.83 62.2245 217.485 55.6854V55.4487H206.14Z" fill="#F7F7F7" stroke="#252729" stroke-width="0.9" stroke-miterlimit="2.613" stroke-linecap="round" stroke-linejoin="round"/>
<path d="M199.027 57.831L198.117 55.0291L195.585 54.1794L193.203 55.9103C193.23 57.4145 193.712 58.8074 194.517 59.9574H197.463L199.027 57.831Z" fill="#F7F7F7"/>
<path d="M198.117 55.0291L200.5 53.2974V50.6082L198.117 48.8767L198.118 48.8752C196.735 49.3527 195.54 50.2343 194.675 51.3782L195.585 54.1793L198.117 55.0291Z" fill="#F7F7F7"/>
<path d="M200.5 50.6082V53.2974L202.884 55.0291L205.416 54.1793L206.326 51.3782C205.461 50.2343 204.266 49.3527 202.883 48.8752L202.884 48.8767L200.5 50.6082Z" fill="#F7F7F7"/>
<path d="M202.884 55.0291L201.973 57.831L203.538 59.9574H206.484C207.289 58.8074 207.771 57.4144 207.798 55.9103L205.416 54.1794L202.884 55.0291Z" fill="#F7F7F7"/>
<path d="M203.538 59.9574L201.973 57.8309H199.027L197.463 59.9574L198.373 62.7594L198.372 62.76C199.046 62.9649 199.76 63.0752 200.5 63.0752C201.241 63.0752 201.955 62.9649 202.628 62.76L202.628 62.7594L203.538 59.9574Z" fill="#F7F7F7"/>
<path d="M198.117 55.029L199.027 57.8309H201.973L202.884 55.029L200.5 53.2974L198.117 55.029Z" fill="#2EBAAB"/>
<path d="M200.5 50.6082L202.884 48.8767L202.883 48.8752C202.781 48.8401 202.678 48.8072 202.574 48.7764C201.917 48.5817 201.221 48.4775 200.5 48.4775C199.78 48.4775 199.084 48.5817 198.426 48.7764C198.322 48.8072 198.219 48.8401 198.118 48.8752L198.117 48.8767L200.5 50.6082Z" fill="#2EBAAB"/>
<path d="M194.675 51.3782C194.61 51.4647 194.546 51.5526 194.484 51.6421C193.709 52.7685 193.242 54.1228 193.204 55.5841C193.202 55.6482 193.201 55.7119 193.201 55.7763C193.201 55.821 193.202 55.8658 193.203 55.9102L195.585 54.1793L194.675 51.3782Z" fill="#2EBAAB"/>
<path d="M197.463 59.9575H194.517C194.579 60.0466 194.644 60.1343 194.71 60.2204C195.561 61.3275 196.722 62.1837 198.064 62.6585C198.166 62.6944 198.269 62.7283 198.372 62.76L198.373 62.7594L197.463 59.9575Z" fill="#2EBAAB"/>
<path d="M202.628 62.7594L202.628 62.76C202.732 62.7283 202.835 62.6945 202.937 62.6585C204.279 62.1837 205.44 61.3274 206.291 60.2204C206.357 60.1343 206.421 60.0466 206.484 59.9575H203.538L202.628 62.7594Z" fill="#2EBAAB"/>
<path d="M207.797 55.5841C207.759 54.1228 207.292 52.7685 206.516 51.6421C206.455 51.5526 206.391 51.4647 206.326 51.3782L205.416 54.1793L207.798 55.9102C207.799 55.8658 207.799 55.821 207.799 55.7763C207.799 55.7119 207.798 55.6481 207.797 55.5841Z" fill="#2EBAAB"/>
<path d="M200.5 48.1808C196.303 48.1422 192.793 51.7169 192.906 55.9156C192.927 59.5054 195.706 62.7328 199.255 63.2659C199.396 63.2659 199.522 63.164 199.547 63.0195C199.574 62.8581 199.466 62.7046 199.305 62.6768C199.07 62.6365 198.836 62.5834 198.607 62.5192L197.792 60.0106L199.177 58.1277H201.823L203.209 60.0106L202.392 62.5245C202.164 62.5874 201.932 62.6387 201.696 62.6768C201.535 62.7046 201.426 62.858 201.454 63.0195C201.482 63.181 201.636 63.2894 201.797 63.2616C205.381 62.6795 208.136 59.4127 208.096 55.7764C208.132 51.6304 204.644 48.1433 200.5 48.1808ZM203.688 59.6607L202.303 57.7778L203.12 55.2629L205.365 54.5093L207.499 56.0594C207.459 57.3634 207.029 58.6067 206.32 59.6607H203.688V59.6607ZM197.313 59.6607H194.683C193.972 58.5997 193.542 57.3512 193.499 56.0616L195.636 54.5093L197.881 55.2629L198.698 57.7778L197.313 59.6607ZM193.511 55.3194C193.579 54.1283 193.964 53.0084 194.579 52.0433L195.236 54.066L193.511 55.3194ZM198.466 55.1425L200.5 53.6643L202.535 55.1425L201.758 57.5343H199.243L198.466 55.1425ZM205.764 54.066L206.421 52.0433C207.037 53.0085 207.421 54.1284 207.49 55.3195L205.764 54.066ZM205.993 51.4427L205.18 53.9456L202.934 54.6992L200.797 53.1463V50.7594L202.935 49.2063C204.14 49.659 205.199 50.4431 205.993 51.4427ZM202.231 48.9842L200.5 50.2415L198.77 48.9842C199.326 48.8415 199.906 48.768 200.5 48.7742C201.094 48.7679 201.675 48.8415 202.231 48.9842ZM198.066 49.2063L200.204 50.7594V53.1463L198.066 54.6992L195.821 53.9456L195.008 51.4426C195.802 50.4431 196.861 49.659 198.066 49.2063ZM195.126 60.2541H197.247L197.908 62.2883C196.82 61.8616 195.866 61.1468 195.126 60.2541ZM203.093 62.2883L203.754 60.2541H205.875C205.133 61.1436 204.177 61.8543 203.093 62.2883Z" fill="#252729"/>
<path d="M200.5 63.372C200.664 63.372 200.797 63.2392 200.797 63.0753C200.797 62.9115 200.664 62.7786 200.5 62.7786C200.336 62.7786 200.204 62.9115 200.204 63.0753C200.204 63.2392 200.336 63.372 200.5 63.372Z" fill="#252729"/>
<path d="M183.141 37.2739L200.7 32.669L217.981 37.5219L218.583 39.7247C219.06 41.5855 219.628 44.5391 219.628 48.0437C219.628 49.1911 219.567 50.3425 219.448 51.4662C218.319 62.115 212.171 71.19 201.173 78.4395L200.5 78.8836L199.827 78.4395C188.829 71.1897 182.681 62.115 181.552 51.4662C181.433 50.3414 181.372 49.1903 181.372 48.0443C181.372 45.2697 181.733 42.3917 182.417 39.7223L183.141 37.2739Z" stroke="#252729" stroke-width="0.9" stroke-miterlimit="2.613" stroke-linecap="round" stroke-linejoin="round"/>
<rect x="197.924" y="65.1526" width="5.15278" height="9.42837" rx="2.57639" fill="#F7F7F7"/>
<rect x="199.469" y="69.1932" width="2.06111" height="3.87237" rx="1.03056" fill="#2EBAAB"/>
<rect x="199.469" y="66.668" width="2.06111" height="1.51527" rx="0.757637" fill="#2EBAAB"/>
<path d="M187.054 45.5994C186.998 45.5994 186.95 45.5798 186.911 45.5406C186.872 45.5014 186.852 45.4538 186.852 45.3978V40.7526H185.298C185.242 40.7526 185.194 40.733 185.155 40.6938C185.116 40.6546 185.096 40.607 185.096 40.551V39.9294C185.096 39.8678 185.113 39.8174 185.147 39.7782C185.186 39.739 185.236 39.7194 185.298 39.7194H189.582C189.644 39.7194 189.694 39.739 189.733 39.7782C189.772 39.8174 189.792 39.8678 189.792 39.9294V40.551C189.792 40.607 189.772 40.6546 189.733 40.6938C189.694 40.733 189.644 40.7526 189.582 40.7526H188.036V45.3978C188.036 45.4538 188.017 45.5014 187.978 45.5406C187.938 45.5798 187.888 45.5994 187.826 45.5994H187.054ZM190.846 45.5994C190.79 45.5994 190.742 45.5798 190.703 45.5406C190.664 45.5014 190.644 45.4538 190.644 45.3978V39.9294C190.644 39.8678 190.661 39.8174 190.695 39.7782C190.734 39.739 190.784 39.7194 190.846 39.7194H194.542C194.604 39.7194 194.654 39.739 194.693 39.7782C194.732 39.8174 194.752 39.8678 194.752 39.9294V40.4838C194.752 40.5454 194.732 40.5958 194.693 40.635C194.654 40.6686 194.604 40.6854 194.542 40.6854H191.778V42.1722H194.357C194.419 42.1722 194.469 42.1918 194.508 42.231C194.548 42.2646 194.567 42.3122 194.567 42.3738V42.8946C194.567 42.9562 194.548 43.0066 194.508 43.0458C194.469 43.0794 194.419 43.0962 194.357 43.0962H191.778V44.6334H194.609C194.671 44.6334 194.721 44.653 194.76 44.6922C194.8 44.7314 194.819 44.7818 194.819 44.8434V45.3978C194.819 45.4594 194.8 45.5098 194.76 45.549C194.721 45.5826 194.671 45.5994 194.609 45.5994H190.846ZM195.509 45.5994C195.464 45.5994 195.422 45.5826 195.383 45.549C195.349 45.5154 195.332 45.4734 195.332 45.423L195.349 45.3474L197.373 39.9294C197.413 39.7894 197.511 39.7194 197.667 39.7194H198.583C198.729 39.7194 198.827 39.7894 198.877 39.9294L200.901 45.3474C200.907 45.3642 200.91 45.3894 200.91 45.423C200.91 45.4734 200.893 45.5154 200.859 45.549C200.826 45.5826 200.787 45.5994 200.742 45.5994H200.011C199.938 45.5994 199.882 45.5826 199.843 45.549C199.804 45.5154 199.779 45.479 199.767 45.4398L199.373 44.415H196.878L196.483 45.4398C196.438 45.5462 196.357 45.5994 196.239 45.5994H195.509ZM199.079 43.449L198.121 40.8534L197.172 43.449H199.079ZM201.904 45.5994C201.842 45.5994 201.792 45.5826 201.753 45.549C201.714 45.5098 201.694 45.4594 201.694 45.3978V39.9294C201.694 39.8678 201.714 39.8174 201.753 39.7782C201.792 39.739 201.842 39.7194 201.904 39.7194H202.568C202.685 39.7194 202.769 39.7726 202.82 39.879L204.441 42.903L206.079 39.879C206.135 39.7726 206.219 39.7194 206.331 39.7194H206.986C207.048 39.7194 207.098 39.739 207.137 39.7782C207.176 39.8174 207.196 39.8678 207.196 39.9294V45.3978C207.196 45.4594 207.176 45.5098 207.137 45.549C207.098 45.5826 207.048 45.5994 206.986 45.5994H206.28C206.224 45.5994 206.177 45.5798 206.138 45.5406C206.098 45.5014 206.079 45.4538 206.079 45.3978V41.7606L204.903 44.0034C204.83 44.1266 204.735 44.1882 204.617 44.1882H204.273C204.155 44.1882 204.06 44.1266 203.987 44.0034L202.811 41.7606V45.3978C202.811 45.4538 202.792 45.5014 202.752 45.5406C202.719 45.5798 202.671 45.5994 202.61 45.5994H201.904ZM210.624 45.5994C210.568 45.5994 210.52 45.5798 210.481 45.5406C210.442 45.5014 210.422 45.4538 210.422 45.3978V39.9294C210.422 39.8678 210.439 39.8174 210.472 39.7782C210.512 39.739 210.562 39.7194 210.624 39.7194H213.06C213.715 39.7194 214.202 39.865 214.521 40.1562C214.846 40.4418 215.008 40.8338 215.008 41.3322C215.008 41.6234 214.936 41.8726 214.79 42.0798C214.65 42.2814 214.485 42.427 214.294 42.5166C214.53 42.623 214.726 42.7966 214.882 43.0374C215.045 43.2782 215.126 43.5526 215.126 43.8606C215.126 44.3814 214.95 44.8014 214.597 45.1206C214.25 45.4398 213.76 45.5994 213.127 45.5994H210.624ZM212.908 42.1302C213.2 42.1302 213.421 42.0602 213.572 41.9202C213.723 41.7802 213.799 41.5926 213.799 41.3574C213.799 41.1166 213.723 40.9318 213.572 40.803C213.421 40.6686 213.2 40.6014 212.908 40.6014H211.59V42.1302H212.908ZM212.992 44.709C213.284 44.709 213.51 44.6306 213.673 44.4738C213.835 44.3114 213.916 44.107 213.916 43.8606C213.916 43.6086 213.835 43.4042 213.673 43.2474C213.51 43.085 213.284 43.0038 212.992 43.0038H211.59V44.709H212.992Z" fill="#F7F7F7"/>
<path d="M106.954 94.8C106.898 94.8 106.85 94.7804 106.811 94.7412C106.772 94.702 106.752 94.6544 106.752 94.5984V89.13C106.752 89.0684 106.769 89.018 106.803 88.9788C106.842 88.9396 106.892 88.92 106.954 88.92H110.6C110.661 88.92 110.712 88.9396 110.751 88.9788C110.79 89.018 110.81 89.0684 110.81 89.13V89.718C110.81 89.7796 110.79 89.83 110.751 89.8692C110.712 89.9028 110.661 89.9196 110.6 89.9196H107.903V91.5156H110.432C110.493 91.5156 110.544 91.5352 110.583 91.5744C110.622 91.6136 110.642 91.664 110.642 91.7256V92.3136C110.642 92.3752 110.622 92.4256 110.583 92.4648C110.544 92.4984 110.493 92.5152 110.432 92.5152H107.903V94.5984C107.903 94.66 107.884 94.7104 107.844 94.7496C107.805 94.7832 107.755 94.8 107.693 94.8H106.954ZM114.024 94.884C113.252 94.884 112.652 94.6852 112.227 94.2876C111.807 93.89 111.583 93.33 111.555 92.6076C111.549 92.4564 111.546 92.21 111.546 91.8684C111.546 91.5212 111.549 91.2692 111.555 91.1124C111.583 90.3956 111.81 89.8384 112.235 89.4408C112.666 89.0376 113.263 88.836 114.024 88.836C114.523 88.836 114.957 88.9228 115.326 89.0964C115.696 89.2644 115.982 89.4968 116.183 89.7936C116.385 90.0848 116.491 90.4152 116.502 90.7848V90.8016C116.502 90.8464 116.483 90.8856 116.444 90.9192C116.41 90.9472 116.371 90.9612 116.326 90.9612H115.528C115.461 90.9612 115.41 90.9472 115.377 90.9192C115.343 90.8912 115.315 90.838 115.293 90.7596C115.203 90.4068 115.055 90.1604 114.848 90.0204C114.64 89.8748 114.363 89.802 114.016 89.802C113.21 89.802 112.79 90.2528 112.756 91.1544C112.75 91.3056 112.748 91.538 112.748 91.8516C112.748 92.1652 112.75 92.4032 112.756 92.5656C112.79 93.4672 113.21 93.918 114.016 93.918C114.363 93.918 114.64 93.8452 114.848 93.6996C115.06 93.554 115.209 93.3076 115.293 92.9604C115.31 92.882 115.335 92.8288 115.368 92.8008C115.408 92.7728 115.461 92.7588 115.528 92.7588H116.326C116.376 92.7588 116.418 92.7756 116.452 92.8092C116.491 92.8428 116.508 92.8848 116.502 92.9352C116.491 93.3048 116.385 93.638 116.183 93.9348C115.982 94.226 115.696 94.4584 115.326 94.632C114.957 94.8 114.523 94.884 114.024 94.884ZM117.7 94.8C117.644 94.8 117.597 94.7804 117.557 94.7412C117.518 94.702 117.499 94.6544 117.499 94.5984V89.1216C117.499 89.06 117.518 89.0124 117.557 88.9788C117.597 88.9396 117.644 88.92 117.7 88.92H118.481C118.543 88.92 118.591 88.9396 118.624 88.9788C118.663 89.0124 118.683 89.06 118.683 89.1216V93.8004H121.346C121.407 93.8004 121.458 93.82 121.497 93.8592C121.536 93.8984 121.556 93.9488 121.556 94.0104V94.5984C121.556 94.66 121.536 94.7104 121.497 94.7496C121.458 94.7832 121.407 94.8 121.346 94.8H117.7Z" fill="#252729"/>
<path d="M153.806 64C153.62 64 153.498 63.9104 153.441 63.7312L151.386 57.568L151.367 57.4816C151.367 57.424 151.386 57.376 151.425 57.3376C151.463 57.2992 151.511 57.28 151.569 57.28H152.414C152.497 57.28 152.561 57.3024 152.606 57.3472C152.657 57.3856 152.692 57.4336 152.711 57.4912L154.334 62.4352L155.956 57.4912C155.969 57.44 156.001 57.392 156.052 57.3472C156.103 57.3024 156.17 57.28 156.254 57.28H157.098C157.15 57.28 157.194 57.2992 157.233 57.3376C157.278 57.376 157.3 57.424 157.3 57.4816L157.281 57.568L155.226 63.7312C155.169 63.9104 155.047 64 154.862 64H153.806ZM160.424 64.096C159.854 64.096 159.365 64.0096 158.955 63.8368C158.545 63.664 158.235 63.4368 158.024 63.1552C157.813 62.8736 157.701 62.5696 157.688 62.2432C157.688 62.1856 157.707 62.1376 157.745 62.0992C157.784 62.0608 157.832 62.0416 157.889 62.0416H158.744C158.821 62.0416 158.878 62.0576 158.917 62.0896C158.961 62.1152 159.003 62.16 159.041 62.224C159.105 62.4416 159.253 62.624 159.483 62.7712C159.713 62.9184 160.027 62.992 160.424 62.992C160.878 62.992 161.221 62.9184 161.451 62.7712C161.681 62.6176 161.797 62.4064 161.797 62.1376C161.797 61.9584 161.736 61.8112 161.614 61.696C161.499 61.5808 161.323 61.4816 161.086 61.3984C160.856 61.3152 160.51 61.2128 160.049 61.0912C159.294 60.912 158.741 60.6752 158.389 60.3808C158.043 60.08 157.87 59.6544 157.87 59.104C157.87 58.7328 157.969 58.4032 158.168 58.1152C158.373 57.8272 158.664 57.6 159.041 57.4336C159.425 57.2672 159.87 57.184 160.376 57.184C160.901 57.184 161.355 57.2768 161.739 57.4624C162.123 57.648 162.414 57.8816 162.613 58.1632C162.817 58.4384 162.926 58.7136 162.939 58.9888C162.939 59.0464 162.92 59.0944 162.881 59.1328C162.843 59.1712 162.795 59.1904 162.737 59.1904H161.845C161.71 59.1904 161.617 59.1296 161.566 59.008C161.528 58.8032 161.4 58.6336 161.182 58.4992C160.965 58.3584 160.696 58.288 160.376 58.288C160.017 58.288 159.736 58.3552 159.531 58.4896C159.326 58.624 159.224 58.8192 159.224 59.0752C159.224 59.2544 159.275 59.4016 159.377 59.5168C159.48 59.632 159.64 59.7344 159.857 59.824C160.081 59.9136 160.401 60.0128 160.817 60.1216C161.381 60.2496 161.829 60.3936 162.161 60.5536C162.501 60.7136 162.75 60.9152 162.91 61.1584C163.07 61.4016 163.15 61.712 163.15 62.0896C163.15 62.4992 163.035 62.8576 162.805 63.1648C162.581 63.4656 162.261 63.696 161.845 63.856C161.435 64.016 160.961 64.096 160.424 64.096Z" fill="#252729"/>
<path d="M193.227 94.8C193.171 94.8 193.124 94.7804 193.085 94.7412C193.045 94.702 193.026 94.6544 193.026 94.5984V89.13C193.026 89.0684 193.043 89.018 193.076 88.9788C193.115 88.9396 193.166 88.92 193.227 88.92H196.873C196.935 88.92 196.985 88.9396 197.024 88.9788C197.063 89.018 197.083 89.0684 197.083 89.13V89.718C197.083 89.7796 197.063 89.83 197.024 89.8692C196.985 89.9028 196.935 89.9196 196.873 89.9196H194.177V91.5156H196.705C196.767 91.5156 196.817 91.5352 196.856 91.5744C196.895 91.6136 196.915 91.664 196.915 91.7256V92.3136C196.915 92.3752 196.895 92.4256 196.856 92.4648C196.817 92.4984 196.767 92.5152 196.705 92.5152H194.177V94.5984C194.177 94.66 194.157 94.7104 194.118 94.7496C194.079 94.7832 194.028 94.8 193.967 94.8H193.227ZM200.298 94.884C199.525 94.884 198.926 94.6852 198.5 94.2876C198.08 93.89 197.856 93.33 197.828 92.6076C197.823 92.4564 197.82 92.21 197.82 91.8684C197.82 91.5212 197.823 91.2692 197.828 91.1124C197.856 90.3956 198.083 89.8384 198.509 89.4408C198.94 89.0376 199.536 88.836 200.298 88.836C200.796 88.836 201.23 88.9228 201.6 89.0964C201.969 89.2644 202.255 89.4968 202.457 89.7936C202.658 90.0848 202.765 90.4152 202.776 90.7848V90.8016C202.776 90.8464 202.756 90.8856 202.717 90.9192C202.683 90.9472 202.644 90.9612 202.599 90.9612H201.801C201.734 90.9612 201.684 90.9472 201.65 90.9192C201.617 90.8912 201.589 90.838 201.566 90.7596C201.477 90.4068 201.328 90.1604 201.121 90.0204C200.914 89.8748 200.637 89.802 200.289 89.802C199.483 89.802 199.063 90.2528 199.029 91.1544C199.024 91.3056 199.021 91.538 199.021 91.8516C199.021 92.1652 199.024 92.4032 199.029 92.5656C199.063 93.4672 199.483 93.918 200.289 93.918C200.637 93.918 200.914 93.8452 201.121 93.6996C201.334 93.554 201.482 93.3076 201.566 92.9604C201.583 92.882 201.608 92.8288 201.642 92.8008C201.681 92.7728 201.734 92.7588 201.801 92.7588H202.599C202.65 92.7588 202.692 92.7756 202.725 92.8092C202.765 92.8428 202.781 92.8848 202.776 92.9352C202.765 93.3048 202.658 93.638 202.457 93.9348C202.255 94.226 201.969 94.4584 201.6 94.632C201.23 94.8 200.796 94.884 200.298 94.884ZM205.338 94.8C205.175 94.8 205.069 94.7216 205.019 94.5648L203.221 89.172L203.204 89.0964C203.204 89.046 203.221 89.004 203.255 88.9704C203.288 88.9368 203.33 88.92 203.381 88.92H204.12C204.193 88.92 204.249 88.9396 204.288 88.9788C204.333 89.0124 204.363 89.0544 204.38 89.1048L205.8 93.4308L207.219 89.1048C207.231 89.06 207.259 89.018 207.303 88.9788C207.348 88.9396 207.407 88.92 207.48 88.92H208.219C208.264 88.92 208.303 88.9368 208.337 88.9704C208.376 89.004 208.395 89.046 208.395 89.0964L208.379 89.172L206.581 94.5648C206.531 94.7216 206.424 94.8 206.262 94.8H205.338Z" fill="#252729"/>
</g>
<defs>
<filter id="filter0_d" x="0" y="0" width="246.6" height="162.6" filterUnits="userSpaceOnUse" color-interpolation-filters="sRGB">
<feFlood flood-opacity="0" result="BackgroundImageFix"/>
<feColorMatrix in="SourceAlpha" type="matrix" values="0 0 0 0 0 0 0 0 0 0 0 0 0 0 0 0 0 0 127 0"/>
<feOffset dx="-34" dy="17"/>
<feGaussianBlur stdDeviation="18"/>
<feColorMatrix type="matrix" values="0 0 0 0 0.65 0 0 0 0 0.65 0 0 0 0 0.65 0 0 0 0.25 0"/>
<feBlend mode="normal" in2="BackgroundImageFix" result="effect1_dropShadow"/>
<feBlend mode="normal" in="SourceGraphic" in2="effect1_dropShadow" result="shape"/>
</filter>
</defs>
</svg>
